<?xml version="1.0" standalone="no"?>
<!DOCTYPE svg PUBLIC "-//W3C//DTD SVG 20010904//EN"
 "http://www.w3.org/TR/2001/REC-SVG-20010904/DTD/svg10.dtd">
<svg version="1.0" xmlns="http://www.w3.org/2000/svg"
 width="7993.000000pt" height="5000.000000pt" viewBox="0 0 7993.000000 5000.000000"
 preserveAspectRatio="xMidYMid meet">

<g transform="translate(0.000000,5000.000000) scale(0.100000,-0.100000)"
fill="#000000" stroke="none">
<path d="M32842 35608 l3 -293 3393 -3 3392 -2 0 295 0 295 -3395 0 -3395 0 2
-292z"/>
<path d="M40048 35152 l-578 -2 0 -75 0 -75 575 0 575 0 -2 -397 -3 -398
-4657 -3 -4658 -2 0 -290 0 -290 9435 0 9435 0 0 290 0 290 -197 2 -198 3 -5
473 -5 473 -4570 2 c-2513 1 -4830 1 -5147 -1z m1852 -552 l0 -400 -562 2
-563 3 -3 398 -2 397 565 0 565 0 0 -400z m1288 3 l-3 -398 -562 -3 -563 -2 0
400 0 400 565 0 565 0 -2 -397z m1282 -3 l0 -400 -562 2 -563 3 -3 398 -2 397
565 0 565 0 0 -400z m1288 3 l-3 -398 -562 -3 -563 -2 0 400 0 400 565 0 565
0 -2 -397z m1282 -3 l0 -400 -562 2 -563 3 -3 398 -2 397 565 0 565 0 0 -400z
m1288 3 l-3 -398 -560 0 -560 0 -3 398 -2 397 565 0 565 0 -2 -397z m1282 -3
l0 -400 -560 0 -560 0 0 400 0 400 560 0 560 0 0 -400z"/>
<path d="M20710 32830 l0 -290 5495 0 5495 0 0 290 0 290 -5495 0 -5495 0 0
-290z"/>
<path d="M49780 32830 l0 -290 5470 0 5470 0 0 290 0 290 -5470 0 -5470 0 0
-290z"/>
<path d="M30970 28345 l0 -1385 -6530 0 -6530 0 0 -295 0 -295 6530 0 6530 0
0 -425 0 -425 9765 0 9765 0 0 425 0 425 6500 0 6500 0 -2 293 -3 292 -6497 3
-6498 2 0 1385 0 1385 -9765 0 -9765 0 0 -1385z m5895 364 c441 -54 732 -367
812 -874 22 -141 21 -439 -2 -570 -68 -391 -240 -649 -521 -786 -256 -124
-636 -123 -887 2 -365 183 -557 597 -533 1149 12 293 71 505 191 690 193 300
530 439 940 389z m1985 1 c320 -28 535 -164 659 -415 l39 -79 -191 -68 c-105
-38 -199 -70 -208 -73 -12 -4 -25 9 -47 47 -95 168 -234 246 -417 236 -170
-11 -264 -82 -273 -209 -4 -50 0 -65 23 -104 51 -88 179 -164 460 -271 455
-173 620 -306 679 -545 20 -82 20 -231 1 -324 -38 -180 -162 -335 -335 -418
-166 -79 -359 -110 -567 -89 -366 37 -609 194 -757 490 l-26 52 22 9 c13 5
103 43 201 85 98 42 181 76 185 76 4 0 27 -35 52 -76 58 -98 149 -185 237
-227 65 -31 73 -32 193 -32 140 0 198 14 269 65 109 79 138 231 66 341 -48 74
-134 117 -475 239 -80 28 -209 83 -288 122 -119 58 -154 80 -206 131 -106 105
-163 230 -173 378 -12 184 40 325 166 449 139 138 289 194 581 219 8 0 67 -4
130 -9z m-4830 -465 l0 -445 445 0 445 0 0 448 0 447 225 -3 225 -3 0 -1134 0
-1135 -225 0 -225 0 0 490 0 490 -445 0 -445 0 0 -490 0 -490 -225 0 -225 0 0
1138 0 1137 225 -3 225 -3 0 -444z m10550 260 l0 -195 -305 0 -305 0 -2 -942
-3 -943 -227 -3 -228 -2 0 945 0 945 -310 0 -310 0 0 190 0 190 843 3 c463 1
843 3 845 5 1 1 2 -86 2 -193z m-3460 162 c108 -26 212 -67 274 -108 32 -21
63 -36 70 -32 6 3 8 3 4 -2 -4 -4 13 -31 37 -59 101 -119 152 -297 142 -496
-15 -269 -121 -444 -330 -544 -151 -73 -196 -80 -562 -86 l-320 -5 -3 -458 -2
-457 -228 2 -227 3 -3 1133 -2 1133 542 -4 c450 -3 554 -7 608 -20z m1408
-1109 l-3 -1133 -227 -3 -228 -2 0 1135 0 1135 230 0 230 0 -2 -1132z m3281
835 c51 -164 111 -352 132 -418 38 -120 159 -508 225 -725 19 -63 51 -162 69
-220 65 -199 185 -591 185 -600 0 -6 -86 -10 -224 -10 l-224 0 -7 28 c-3 15
-36 127 -72 250 l-66 222 -402 0 -402 0 -46 -152 c-26 -84 -59 -196 -75 -248
l-28 -95 -212 -3 c-182 -2 -212 0 -212 12 0 9 61 210 136 448 75 238 158 505
186 593 27 88 69 221 92 295 24 74 99 312 166 528 l123 392 282 0 282 0 92
-297z m1341 -638 l0 -935 495 0 495 0 0 -200 0 -200 -725 0 -725 0 0 1135 0
1135 230 0 230 0 0 -935z"/>
<path d="M36560 28312 c-131 -44 -208 -115 -279 -259 -80 -160 -111 -462 -77
-723 36 -262 131 -427 294 -507 69 -34 81 -37 187 -41 138 -5 220 15 307 78
164 117 240 340 240 700 0 392 -105 632 -320 733 -61 28 -77 31 -182 34 -91 2
-127 -1 -170 -15z"/>
<path d="M40420 28015 l0 -318 238 6 c150 4 257 11 293 20 167 41 229 120 229
292 0 166 -59 248 -206 290 -45 13 -117 18 -306 22 l-248 5 0 -317z"/>
<path d="M45410 28266 c0 -10 -236 -815 -265 -903 l-24 -73 294 0 295 0 -10
23 c-5 12 -26 78 -46 147 -19 69 -53 181 -74 250 -21 69 -66 222 -101 340 -57
198 -69 235 -69 216z"/>
<path d="M21520 28525 l0 -85 1265 0 1266 0 -3 83 -3 82 -1262 3 -1263 2 0
-85z"/>
<path d="M24520 28525 l0 -85 1265 0 1266 0 -3 83 -3 82 -1262 3 -1263 2 0
-85z"/>
<path d="M27457 28603 c-4 -3 -7 -42 -7 -85 l0 -78 1270 0 1271 0 -3 83 -3 82
-1261 3 c-693 1 -1264 -1 -1267 -5z"/>
<path d="M51410 28525 l0 -85 1265 0 1265 0 0 85 0 85 -1265 0 -1265 0 0 -85z"/>
<path d="M54410 28525 l0 -85 1265 0 1265 0 0 85 0 85 -1265 0 -1265 0 0 -85z"/>
<path d="M57350 28525 l0 -85 1265 0 1265 0 0 85 0 85 -1265 0 -1265 0 0 -85z"/>
<path d="M64095 24870 c-3 -5 -12 -7 -20 -4 -16 6 -165 -35 -165 -45 0 -4 -9
-7 -20 -8 -12 -1 -43 -16 -71 -32 -27 -17 -53 -31 -57 -31 -4 0 -23 -14 -42
-31 -20 -17 -27 -28 -17 -25 11 4 16 2 12 -5 -4 -6 -14 -8 -22 -4 -14 5 -50
-17 -105 -64 -9 -8 -15 -18 -12 -23 3 -5 0 -7 -8 -6 -7 2 -12 -5 -12 -14 1
-10 -2 -15 -7 -13 -4 3 -35 -20 -69 -51 -47 -45 -59 -61 -55 -78 5 -17 4 -18
-4 -6 -10 13 -15 8 -12 -13 0 -4 -3 -6 -9 -5 -14 4 -161 -195 -155 -210 3 -7
1 -11 -4 -8 -10 6 -44 -41 -44 -61 0 -7 -3 -11 -5 -8 -9 8 -92 -139 -87 -153
3 -7 -2 -15 -11 -19 -18 -7 -45 -57 -41 -75 2 -7 2 -9 -1 -4 -2 4 -20 -22 -38
-58 -19 -37 -31 -72 -28 -79 4 -7 3 -8 -2 -4 -10 10 -56 -91 -47 -106 3 -5 1
-7 -4 -4 -6 4 -18 -14 -27 -41 -10 -26 -22 -55 -27 -65 -22 -40 -29 -68 -16
-62 6 4 4 0 -5 -8 -10 -8 -18 -19 -18 -24 0 -6 -9 -32 -21 -58 -22 -51 -77
-205 -83 -233 -1 -9 -9 -30 -15 -47 -7 -16 -14 -34 -15 -40 -2 -5 -20 -64 -41
-129 -21 -66 -39 -132 -39 -147 -1 -15 -5 -25 -10 -22 -5 3 -6 0 -4 -8 3 -8
-1 -29 -9 -47 -7 -18 -11 -37 -8 -42 3 -4 1 -10 -3 -12 -11 -4 -64 -216 -57
-228 3 -4 0 -10 -6 -12 -6 -2 -11 -23 -12 -46 -1 -23 -6 -42 -11 -42 -4 0 -6
-7 -3 -15 4 -8 2 -17 -4 -21 -5 -3 -9 -13 -8 -22 1 -10 -1 -24 -4 -32 -6 -15
-37 -154 -37 -165 0 -3 6 -3 13 1 8 5 9 4 2 -4 -8 -9 -30 -4 -84 19 -231 97
-487 114 -731 48 -103 -28 -297 -124 -405 -200 -123 -87 -333 -298 -439 -441
-464 -627 -764 -1572 -837 -2634 l-12 -182 -356 -7 c-196 -4 -862 -5 -1481 -1
-619 4 -1153 4 -1187 1 l-63 -8 0 -78 0 -79 1543 0 1542 0 0 -178 c0 -114 -4
-184 -12 -197 -30 -52 -163 -453 -168 -505 0 -9 -4 -20 -7 -25 -7 -11 -48
-175 -53 -210 -1 -11 -5 -27 -8 -35 -11 -28 -55 -264 -76 -405 -66 -454 -84
-900 -55 -1376 l7 -106 1724 -5 c948 -3 1726 -8 1729 -10 2 -3 18 -68 33 -144
40 -194 82 -346 160 -584 276 -833 718 -1611 1294 -2278 l90 -103 -2 -597 c0
-328 -6 -939 -11 -1357 -17 -1256 -30 -2718 -30 -3304 l0 -551 -1445 0 -1445
0 0 100 0 99 68 3 67 3 0 40 0 40 -608 3 -608 2 7 -37 c4 -21 9 -41 11 -45 2
-5 222 -8 489 -8 l484 0 0 -100 0 -100 -417 0 c-458 -1 -440 2 -342 -54 49
-28 15 -32 -50 -7 -62 25 -65 15 -13 -48 51 -61 56 -71 39 -71 -8 0 -39 20
-68 44 -30 25 -55 43 -57 41 -2 -2 11 -31 30 -64 l33 -61 423 0 422 0 0 -350
0 -350 45 0 45 0 0 350 0 350 1553 0 c853 0 3126 0 5050 0 l3497 0 0 105 0
105 -167 1 c-93 1 -735 5 -1428 8 l-1260 6 5 45 c3 25 5 135 4 245 -1 169 -5
224 -28 360 -15 88 -31 164 -34 170 -4 5 -8 19 -9 30 -9 59 -67 234 -76 228
-5 -3 -7 -1 -3 5 15 25 -164 397 -241 498 -12 17 -23 36 -23 42 0 6 -3 12 -8
14 -4 2 -28 32 -54 68 -25 36 -55 76 -67 89 -12 13 -21 27 -21 31 0 4 24 14
53 22 l52 15 3 436 2 437 241 0 242 0 -7 48 c-4 26 -7 54 -8 62 0 8 -7 62 -15
120 -8 58 -14 112 -15 120 0 8 -17 152 -38 319 -35 282 -39 304 -61 325 -13
11 -53 46 -89 76 -36 30 -67 57 -70 60 -3 3 -39 34 -80 69 -41 35 -82 71 -90
80 -8 9 -31 28 -50 42 -19 15 -44 35 -56 45 -12 11 -50 44 -85 74 -35 30 -82
71 -104 90 -22 20 -71 62 -109 95 l-69 59 5 -32 c2 -18 1 -32 -4 -32 -4 0 -7
-11 -6 -25 1 -14 7 -25 13 -25 5 0 4 -4 -4 -9 -11 -7 -25 -95 -53 -323 -21
-172 -37 -320 -36 -328 0 -8 -2 -23 -6 -32 -5 -10 -9 -51 -9 -93 -1 -41 -5
-75 -9 -75 -14 0 -9 -30 5 -30 9 0 9 -2 -1 -9 -8 -4 -13 -11 -13 -15 0 -3 -1
-11 -4 -18 -5 -19 -26 -203 -24 -214 1 -5 0 -16 -4 -24 -5 -16 -47 -351 -47
-383 0 -17 15 -18 240 -15 l240 3 0 -420 0 -420 -31 38 c-17 20 -35 34 -41 31
-6 -4 -8 -3 -5 3 8 13 -37 56 -48 46 -4 -5 -5 -3 -1 4 7 12 -90 100 -106 95
-5 -1 -7 1 -4 6 8 13 -82 84 -96 76 -6 -4 -8 -3 -5 3 7 11 -127 116 -149 116
-7 0 -11 3 -9 7 6 10 -104 72 -115 65 -6 -4 -9 -2 -8 4 3 13 -6 19 -140 88
-56 29 -108 53 -116 53 -8 0 -16 5 -18 12 -2 6 -13 12 -25 13 -11 0 -31 8 -44
16 -28 18 -269 98 -384 128 -213 54 -534 86 -758 75 -76 -4 -136 -8 -134 -11
3 -2 56 -15 118 -28 100 -21 277 -71 334 -95 90 -37 262 -121 314 -152 34 -21
65 -38 68 -38 5 0 25 -14 163 -117 113 -85 128 -98 249 -216 134 -132 273
-306 355 -447 21 -36 41 -67 45 -70 8 -5 150 -287 150 -296 -1 -12 56 -149 63
-152 5 -2 6 -8 3 -13 -3 -5 -1 -18 5 -29 6 -12 13 -29 15 -38 14 -70 61 -238
68 -240 4 -2 5 -7 3 -11 -3 -4 4 -61 14 -126 29 -172 43 -409 35 -567 l-7
-138 -1594 0 -1594 0 0 2585 0 2585 26 16 c36 24 353 437 505 659 236 344 488
799 631 1143 l43 103 83 28 c89 31 238 110 367 196 536 355 966 871 1222 1465
l63 145 790 3 790 2 0 28 c-1 15 4 95 9 177 15 210 5 808 -15 935 -3 19 -5 52
-5 72 0 21 -4 40 -9 43 -5 3 -7 15 -4 28 6 33 -18 227 -29 227 -5 0 -6 7 -3
16 8 21 -52 396 -71 444 -8 20 -10 29 -11 68 -1 22 -6 31 -14 26 -7 -4 -8 -3
-4 4 11 18 -87 401 -117 457 -6 11 -13 30 -14 41 -5 32 -49 155 -54 150 -2 -2
-5 7 -5 20 -1 14 -10 35 -20 46 -11 12 -13 18 -7 14 9 -5 11 -2 7 8 -3 9 -11
13 -17 9 -5 -3 -7 -1 -4 4 13 21 -169 427 -186 416 -6 -3 -7 -1 -3 5 9 15 -34
93 -47 85 -6 -3 -7 -1 -3 5 9 15 -12 54 -24 47 -6 -4 -7 1 -3 11 5 13 3 15 -7
9 -9 -5 -11 -4 -6 3 8 13 -39 92 -55 92 -5 0 -7 5 -4 10 9 14 -14 42 -28 33
-6 -3 -7 -1 -3 5 9 15 -43 94 -57 85 -5 -3 -7 -1 -3 5 8 13 -87 138 -103 134
-6 -1 -10 1 -9 5 4 14 -34 63 -43 57 -5 -3 -8 0 -7 8 2 7 -3 12 -10 10 -6 -1
-11 1 -10 5 4 16 -23 53 -34 47 -6 -4 -8 -3 -4 4 7 12 -80 89 -96 84 -5 -1 -7
2 -4 7 6 9 -134 128 -163 139 -9 3 -27 14 -40 26 -14 12 -21 15 -16 6 4 -8 -2
-5 -14 8 -29 30 -139 84 -153 76 -6 -4 -8 -3 -5 4 7 11 -77 45 -87 34 -3 -3
-6 -1 -6 5 0 11 -129 47 -138 39 -3 -3 -12 0 -20 7 -26 21 -340 16 -432 -7
-104 -26 -231 -76 -223 -89 3 -6 1 -7 -5 -3 -19 11 -209 -93 -195 -108 4 -4 0
-4 -9 -1 -9 4 -36 56 -62 120 -133 334 -284 627 -466 910 l-77 120 -19 193
c-10 105 -20 192 -23 192 -3 0 -6 21 -7 48 -1 68 -13 172 -20 184 -4 6 -8 25
-9 42 -13 174 -107 708 -170 959 -14 54 -25 107 -25 118 0 13 -4 18 -12 13 -6
-4 -8 -3 -4 4 3 6 2 28 -3 49 -16 66 -62 237 -68 253 -3 8 -7 22 -9 30 -11 51
-61 199 -66 194 -4 -3 -4 4 -1 17 4 15 3 20 -5 15 -7 -4 -10 -2 -7 6 5 13 -73
252 -114 348 -11 25 -25 60 -31 77 -7 18 -17 30 -23 26 -6 -3 -7 -1 -3 6 5 7
-2 37 -14 67 -20 48 -25 53 -39 42 -14 -11 -14 -11 -3 3 10 13 10 22 -1 48 -7
17 -17 28 -22 24 -4 -5 -5 -2 -1 5 7 11 -61 155 -152 322 -44 81 -57 101 -64
95 -2 -3 -5 1 -5 8 0 21 -35 67 -46 60 -5 -3 -7 -1 -3 5 9 14 -33 84 -47 75
-5 -3 -7 -1 -4 4 8 13 -31 65 -43 58 -5 -3 -12 0 -16 6 -5 8 -3 9 6 4 8 -5 11
-3 8 6 -3 8 -10 13 -16 12 -7 -2 -9 4 -5 14 5 12 3 14 -7 8 -8 -5 -11 -4 -6 3
8 14 -43 74 -56 65 -7 -3 -8 -1 -4 5 4 7 2 12 -4 12 -6 0 -9 4 -6 8 8 13 -60
75 -73 68 -6 -4 -9 -1 -6 7 3 7 -12 29 -33 49 -30 28 -42 34 -51 25 -9 -9 -11
-8 -6 4 4 11 -6 26 -32 48 -46 38 -65 41 -32 4 13 -15 17 -22 8 -15 -9 6 -20
8 -24 4 -5 -4 -5 -2 -1 5 3 6 2 14 -4 18 -6 4 -8 10 -5 15 17 27 -275 174
-307 154 -6 -4 -8 -3 -5 3 10 16 -95 33 -204 33 -54 0 -100 -4 -104 -10z
m-348 -154 c0 -8 -6 -12 -15 -9 -11 5 -11 7 0 14 7 5 13 9 14 9 0 0 1 -6 1
-14z m-247 -210 c0 -2 -8 -10 -17 -17 -16 -13 -17 -12 -4 4 13 16 21 21 21 13z
m-330 -491 c5 3 11 1 14 -4 4 -5 -2 -8 -11 -6 -10 2 -22 4 -26 4 -5 1 -5 6 -1
13 6 9 9 9 12 0 2 -7 8 -10 12 -7z m2215 -244 c3 -5 2 -12 -3 -15 -5 -3 -9 1
-9 9 0 17 3 19 12 6z m-570 -2391 c3 -6 -1 -7 -9 -4 -18 7 -21 14 -7 14 6 0
13 -4 16 -10z m780 -39 c3 -5 2 -12 -3 -15 -5 -3 -9 1 -9 9 0 17 3 19 12 6z
m72 -68 c-4 -3 -1 -13 6 -22 11 -14 10 -14 -5 -2 -16 12 -16 31 -1 31 4 0 3
-3 0 -7z m-666 -50 c13 -16 12 -17 -3 -4 -17 13 -22 21 -14 21 2 0 10 -8 17
-17z m840 -120 c13 -16 12 -17 -3 -4 -17 13 -22 21 -14 21 2 0 10 -8 17 -17z
m-208 -798 c-7 -21 -12 -19 -10 4 0 11 5 18 9 15 4 -3 5 -11 1 -19z m68 -138
c-10 -9 -11 -8 -5 6 3 10 9 15 12 12 3 -3 0 -11 -7 -18z m2249 -511 c0 -2 -8
-10 -17 -17 -16 -13 -17 -12 -4 4 13 16 21 21 21 13z m-1163 -71 c0 -8 -4 -12
-9 -9 -5 3 -6 10 -3 15 9 13 12 11 12 -6z m1311 -43 c-11 -14 -10 -15 7 -8 15
5 17 4 8 -5 -15 -15 -38 -2 -24 15 6 7 7 17 3 21 -4 5 -1 5 6 1 11 -6 11 -11
0 -24z m91 -55 c8 -10 7 -14 -2 -14 -8 0 -14 6 -14 14 0 7 1 13 2 13 2 0 8 -6
14 -13z m126 -106 c3 -5 2 -12 -3 -15 -5 -3 -9 1 -9 9 0 17 3 19 12 6z m56
-68 c13 -16 12 -17 -3 -4 -17 13 -22 21 -14 21 2 0 10 -8 17 -17z m-17 -11 c3
-5 -1 -9 -9 -9 -8 0 -12 4 -9 9 3 4 7 8 9 8 2 0 6 -4 9 -8z m255 -286 c-3 -3
-11 5 -18 17 -13 21 -12 21 5 5 10 -10 16 -20 13 -22z m77 -111 c-1 -8 -5 -17
-8 -21 -5 -4 -4 16 1 34 3 9 9 -1 7 -13z m-8563 -470 c-3 -9 -8 -14 -10 -11
-3 3 -2 9 2 15 9 16 15 13 8 -4z m8811 -23 c3 -5 -1 -9 -9 -9 -8 0 -12 4 -9 9
3 4 7 8 9 8 2 0 6 -4 9 -8z m-8869 -91 c-9 -8 -36 -10 -30 -2 2 4 11 8 20 8 8
0 13 -3 10 -6z m7480 -2943 c-96 -229 -294 -557 -461 -765 -110 -136 -306
-330 -455 -449 -127 -102 -457 -329 -466 -320 -2 2 7 40 21 85 146 462 194
1045 117 1424 l-17 87 465 1 c256 1 545 4 641 8 96 3 176 3 178 -1 2 -3 -9
-35 -23 -70z m-3201 45 c12 -42 58 -274 95 -483 73 -413 134 -893 175 -1375
30 -347 64 -1015 53 -1015 -11 0 -286 349 -382 484 -475 670 -842 1450 -1029
2193 -26 101 -49 190 -52 198 -5 13 60 15 564 15 535 0 571 -1 576 -17z m1780
-140 c21 -180 23 -437 6 -593 -76 -691 -381 -1432 -903 -2199 -105 -153 -337
-460 -348 -461 -3 0 -9 125 -13 278 -29 1176 -125 2086 -310 2932 -20 91 -39
173 -42 183 -5 16 37 17 794 17 l799 0 17 -157z m2077 -6770 c13 -16 12 -17
-3 -4 -17 13 -22 21 -14 21 2 0 10 -8 17 -17z m69 -73 c0 -5 -2 -10 -4 -10 -3
0 -8 5 -11 10 -3 6 -1 10 4 10 6 0 11 -4 11 -10z"/>
<path d="M17925 23445 c-38 -7 -86 -16 -105 -20 -53 -11 -210 -65 -255 -88
-22 -12 -42 -22 -45 -22 -24 -7 -39 -19 -33 -28 4 -6 0 -8 -9 -5 -18 8 -103
-41 -124 -71 -9 -12 -20 -19 -25 -16 -5 4 -26 -6 -46 -21 -55 -40 -61 -46 -38
-38 11 4 17 4 14 0 -4 -4 -16 -9 -29 -11 -12 -2 -47 -26 -77 -52 -31 -26 -67
-57 -81 -69 -14 -11 -22 -25 -19 -31 4 -6 -1 -10 -11 -9 -9 0 -16 -5 -14 -12
1 -8 -1 -11 -6 -8 -9 5 -48 -30 -54 -49 -2 -5 -6 -9 -10 -8 -12 4 -48 -49 -41
-60 3 -5 1 -7 -4 -4 -14 9 -125 -121 -116 -136 3 -7 3 -9 -2 -5 -4 4 -14 0
-21 -10 -16 -20 -18 -36 -5 -27 5 3 12 1 16 -4 3 -6 -3 -8 -14 -6 -22 4 -56
-28 -47 -44 4 -5 1 -13 -5 -17 -8 -4 -9 -3 -5 4 4 7 5 12 2 12 -14 0 -126
-181 -123 -201 1 -12 -4 -23 -11 -25 -7 -1 -8 0 -2 3 5 2 10 9 10 14 0 6 -4 8
-9 4 -13 -8 -82 -122 -85 -140 -1 -8 -10 -23 -20 -34 -10 -11 -15 -25 -10 -32
4 -7 3 -10 -3 -6 -10 6 -50 -70 -45 -85 1 -5 -2 -8 -7 -8 -9 0 -35 -56 -30
-64 2 -2 -4 -12 -13 -23 -9 -10 -29 -45 -43 -77 -21 -48 -23 -61 -13 -75 10
-13 10 -14 -2 -4 -11 10 -17 5 -33 -30 -48 -107 -97 -242 -92 -254 2 -8 1 -12
-3 -9 -8 5 -113 -294 -117 -332 -6 -50 -11 -51 -98 -25 -282 82 -610 92 -906
27 -942 -209 -1698 -1150 -1906 -2369 -32 -188 -47 -358 -52 -595 -5 -220 -7
-248 -25 -277 -11 -18 -17 -33 -14 -33 3 0 -3 -9 -15 -21 -11 -11 -18 -27 -15
-35 3 -8 2 -12 -3 -9 -12 7 -24 -31 -15 -46 4 -8 3 -9 -4 -5 -12 7 -45 -47
-35 -58 4 -3 1 -6 -5 -6 -10 0 -38 -67 -34 -82 1 -5 -2 -8 -7 -8 -16 0 -21
-31 -9 -53 10 -19 9 -20 -4 -9 -13 10 -18 5 -33 -35 -9 -27 -23 -62 -31 -80
-27 -59 -64 -184 -59 -194 4 -5 2 -9 -4 -9 -8 0 -20 -37 -26 -80 -1 -8 -7 -28
-14 -44 -6 -16 -10 -35 -7 -42 2 -6 0 -16 -5 -21 -9 -9 -51 -206 -63 -293 -7
-49 -24 -206 -26 -230 -16 -252 -12 -577 7 -705 l8 -50 704 -3 c483 -1 708 1
717 8 9 8 14 7 20 -1 5 -8 3 -9 -6 -4 -14 8 -13 -2 20 -231 116 -799 476
-1467 991 -1837 118 -84 346 -199 464 -232 207 -59 419 -70 629 -32 5 1 26
-101 48 -228 159 -949 368 -1686 821 -2890 157 -417 354 -960 492 -1360 151
-437 157 -455 156 -513 -1 -45 2 -54 21 -61 16 -6 30 -34 60 -127 107 -328
201 -626 347 -1099 136 -439 176 -563 219 -682 3 -10 -47 -13 -232 -13 l-236
0 0 35 0 35 -290 0 c-159 0 -290 -2 -290 -4 0 -2 28 -22 63 -45 l63 -41 197 0
197 0 0 -24 c0 -14 -4 -27 -8 -30 -5 -3 -74 -5 -153 -6 -121 0 -159 4 -239 24
-52 14 -112 27 -132 31 -37 6 -38 7 -38 50 l0 45 -121 0 c-112 0 -121 1 -126
20 -4 14 -14 20 -33 20 -16 0 -131 4 -257 10 -231 10 -362 23 -419 41 -37 11
-39 21 -50 211 -4 64 -9 117 -13 116 -33 -4 -34 -1 -29 203 l4 201 -45 -7
c-25 -4 -58 -14 -73 -23 -56 -33 -58 -47 -58 -436 l0 -356 -55 0 c-50 0 -55
-2 -61 -24 -3 -14 -3 -30 1 -37 5 -7 3 -10 -5 -7 -9 3 -37 118 -81 332 -37
180 -69 330 -71 332 -3 2 -38 -3 -79 -12 -95 -20 -396 -34 -576 -27 l-140 6
-7 -29 c-18 -71 -24 -202 -15 -364 5 -96 11 -190 14 -208 l6 -32 -836 0 -835
0 4 277 c4 291 19 428 71 634 8 30 16 64 18 75 2 10 7 26 10 34 3 8 16 47 27
85 33 109 70 200 148 358 29 60 50 113 46 118 -3 5 -1 8 5 7 5 -2 38 42 73 97
256 407 615 726 1023 910 52 23 93 44 91 46 -3 2 5 5 17 5 12 1 62 16 110 33
67 24 93 29 107 21 27 -14 67 -69 75 -103 12 -46 23 -40 35 18 12 58 6 107
-16 140 -39 55 9 148 53 104 15 -15 21 -2 34 68 6 32 18 70 27 86 20 34 94 71
128 64 30 -5 54 24 54 65 0 39 -29 107 -51 118 -44 24 -118 4 -196 -54 -32
-23 -70 -46 -84 -49 -37 -9 -103 -79 -133 -140 -30 -58 -34 -126 -12 -197 l14
-45 -40 3 c-56 6 -302 -18 -306 -29 -2 -5 -8 -6 -13 -3 -16 9 -315 -58 -361
-82 -15 -8 -28 -12 -28 -10 0 7 -103 -30 -202 -71 -48 -20 -85 -40 -82 -45 3
-4 -2 -5 -10 -2 -23 9 -300 -141 -290 -157 3 -5 -3 -6 -12 -2 -10 4 -15 2 -11
-4 3 -5 0 -10 -8 -10 -13 0 -15 89 -15 659 l0 658 266 0 c248 0 265 1 261 18
-3 9 -8 37 -11 62 -10 85 -69 505 -70 507 -4 5 -85 -20 -82 -26 2 -3 -6 -7
-17 -7 -12 -1 -65 -15 -117 -32 -52 -17 -244 -78 -427 -135 -183 -58 -340
-108 -350 -112 -10 -5 -27 -10 -37 -12 -27 -5 -33 -13 -17 -22 9 -6 10 -10 2
-12 -7 -3 -14 -25 -15 -49 -2 -25 -6 -52 -9 -60 -3 -8 -8 -39 -12 -68 l-6 -53
231 3 230 3 0 -725 -1 -725 -74 -60 c-68 -54 -80 -68 -72 -78 6 -9 -26 -35
-38 -31 -18 7 -58 -34 -51 -52 3 -8 2 -13 -3 -9 -13 7 -43 -24 -35 -37 5 -7 2
-8 -5 -4 -23 15 -153 -133 -273 -309 -106 -156 -150 -233 -142 -246 4 -7 3 -9
-3 -6 -13 8 -86 -140 -77 -156 4 -7 3 -9 -1 -5 -17 16 -115 -256 -155 -427
-29 -125 -28 -120 -46 -251 -17 -123 -24 -498 -10 -541 l7 -23 -868 0 c-477 0
-1202 -3 -1610 -7 l-743 -6 0 -104 0 -103 2884 0 2884 0 6 -57 c21 -190 36
-417 36 -543 -1 -80 9 -340 22 -578 l22 -432 121 0 121 0 12 162 c6 90 23 316
37 503 13 187 29 444 35 570 5 127 13 263 16 303 l7 73 30 -3 c30 -3 33 -9 89
-148 129 -319 145 -372 162 -535 8 -83 34 -320 58 -529 l43 -378 120 7 120 6
23 -35 c13 -19 48 -58 79 -87 30 -28 47 -49 36 -45 -118 47 -125 49 -175 37
-67 -15 -95 -14 -146 6 -42 16 -45 16 -57 0 -16 -23 -29 -137 -17 -149 15 -15
515 -6 533 9 11 9 27 7 74 -10 47 -17 84 -21 170 -21 128 -1 200 19 308 84
l66 40 60 -38 c94 -62 186 -87 311 -87 120 0 197 21 296 81 102 61 102 64 -6
64 -67 0 -114 -6 -158 -20 -111 -35 -242 -22 -350 35 -81 42 -79 36 -26 101
26 33 51 59 55 59 5 0 25 -16 45 -35 21 -19 40 -35 43 -35 3 0 15 -6 26 -14
14 -9 15 -11 3 -7 -13 4 -15 1 -11 -12 16 -41 13 -41 665 -42 l627 0 15 22
c11 15 12 26 5 40 -5 10 -14 16 -20 13 -5 -4 -9 -1 -9 5 0 8 -29 10 -95 8 -52
-2 -95 0 -95 5 0 4 -9 7 -19 7 -11 0 -23 5 -27 12 -5 7 -3 8 7 3 12 -8 12 -6
0 8 -24 30 -39 13 -18 -21 5 -7 1 -19 -9 -30 -17 -16 -18 -16 -11 1 6 15 1 17
-36 16 -23 -1 -64 -1 -92 0 l-50 1 52 30 c54 31 100 40 87 18 -5 -9 -2 -8 9 1
15 12 17 12 12 -1 -3 -8 0 -20 8 -26 11 -10 14 -7 13 14 -1 14 -8 29 -15 34
-19 11 -1 25 164 123 104 62 140 88 140 102 0 32 -72 31 -195 -1 -96 -26 -109
-32 -162 -81 -32 -30 -69 -58 -82 -62 -32 -13 -94 -16 -144 -7 -35 7 -42 11
-36 24 30 73 30 70 -4 136 -18 34 -45 77 -60 95 -15 18 -27 41 -27 50 0 9 -6
17 -12 17 -33 4 -37 6 -20 12 15 7 12 13 -22 46 -34 33 -42 37 -56 26 -8 -7
-18 -10 -22 -6 -3 3 -1 6 6 6 7 0 10 4 7 9 -4 5 -1 11 5 13 6 2 -10 23 -35 46
l-46 43 0 122 c0 147 -17 673 -26 811 -6 89 -9 102 -32 123 -14 12 -20 23 -14
23 28 0 123 -43 136 -62 8 -11 30 -31 50 -44 l35 -24 915 0 916 0 0 -350 0
-350 40 0 40 0 2 348 3 347 174 0 174 0 60 -270 c32 -148 61 -272 63 -274 6
-7 188 19 196 27 4 4 -5 121 -21 260 -15 139 -25 255 -22 257 6 6 326 6 332 0
3 -2 -12 -127 -32 -277 -21 -150 -37 -274 -36 -275 1 -1 40 -5 87 -8 l85 -7
33 108 32 109 1 560 c0 308 0 586 0 618 l-1 57 -44 0 -44 0 -4 54 c-1 30 0 52
5 49 4 -2 7 5 7 16 0 12 -7 20 -17 20 -10 1 -61 3 -113 6 -52 3 -187 9 -300
14 -113 6 -212 12 -221 16 -13 5 -18 -9 -28 -80 -12 -80 -15 -87 -44 -102 -78
-40 -101 -120 -83 -290 l7 -73 -249 0 c-275 0 -280 -1 -267 -60 l7 -30 83 0
84 0 3 -84 c2 -46 2 -91 0 -100 -3 -14 -31 -16 -243 -16 -224 0 -240 1 -235
18 9 29 35 251 41 352 3 52 19 239 35 415 45 495 91 1125 130 1780 6 99 14
245 20 325 5 80 12 192 15 250 3 58 8 141 10 185 12 190 35 650 45 895 6 146
13 275 16 288 l4 22 2505 0 2505 0 0 85 0 86 -2494 -3 c-1372 -2 -2497 0
-2501 4 -4 3 -1 151 6 327 l13 322 53 40 c407 307 790 901 972 1509 89 296
166 736 212 1223 l12 127 1864 0 1863 0 0 85 0 85 -1857 -7 -1856 -6 6 84 c4
46 9 163 13 259 3 96 7 195 9 220 1 25 3 109 4 188 l1 142 479 0 478 0 7 68
c58 608 15 1298 -120 1907 -40 178 -126 486 -173 613 l-30 82 1520 0 1519 0 0
83 0 83 -1548 -4 -1548 -5 -54 124 c-210 484 -475 891 -801 1234 l-87 90 -17
120 c-44 314 -99 573 -207 977 -6 22 -15 35 -21 31 -6 -3 -7 -1 -3 5 4 7 -9
64 -29 129 -27 87 -39 113 -47 102 -8 -11 -9 -10 -4 4 8 24 -3 69 -15 61 -5
-3 -7 1 -4 8 7 18 -50 160 -60 151 -4 -5 -5 -2 -1 4 10 17 -110 293 -126 293
-5 0 -7 4 -4 9 8 12 -4 42 -13 36 -4 -2 -8 1 -8 8 0 20 -31 87 -40 87 -5 0 -9
10 -10 21 -2 23 -32 61 -43 54 -4 -2 -7 1 -7 8 0 9 521 11 2349 9 l2348 -2 0
85 0 85 -2395 2 c-1317 2 -2394 6 -2393 9 2 3 -9 21 -23 40 -14 19 -29 41 -32
49 -4 8 -27 42 -52 75 -25 33 -57 77 -70 98 -14 20 -47 61 -73 90 -26 28 -57
65 -69 81 -15 19 -28 26 -39 22 -14 -5 -15 -4 -5 7 9 11 8 17 -2 26 -8 6 -18
7 -22 3 -5 -4 -5 -2 -2 4 8 13 -58 76 -69 66 -4 -4 -4 -2 -1 4 9 15 -29 48
-44 38 -7 -4 -10 -3 -6 3 9 14 -90 106 -105 97 -7 -4 -8 -3 -4 4 9 14 -73 75
-91 67 -8 -2 -11 0 -8 5 8 13 -131 104 -146 94 -7 -4 -10 -3 -5 4 6 10 -30 28
-46 24 -5 -1 -8 3 -8 9 0 5 -4 7 -10 4 -5 -3 -10 -2 -10 3 0 13 -50 33 -62 26
-6 -4 -8 -2 -4 4 6 10 -8 17 -51 27 -10 2 -45 15 -78 28 -77 32 -140 44 -129
25 4 -7 -1 -6 -12 4 -42 35 -326 50 -469 23z m-344 -132 c13 -16 12 -17 -3 -4
-17 13 -22 21 -14 21 2 0 10 -8 17 -17z m-181 -83 c0 -5 -5 -10 -11 -10 -5 0
-7 5 -4 10 3 6 8 10 11 10 2 0 4 -4 4 -10z m-200 -159 c0 -5 -7 -12 -16 -15
-14 -5 -15 -4 -4 9 14 17 20 19 20 6z m-172 -166 c-3 -3 -9 2 -12 12 -6 14 -5
15 5 6 7 -7 10 -15 7 -18z m2208 13 c3 -4 -1 -5 -10 -4 -8 1 -18 5 -22 8 -3 4
1 5 10 4 8 -1 18 -5 22 -8z m74 -93 c0 -2 -6 -8 -13 -14 -10 -8 -14 -7 -14 2
0 8 6 14 14 14 7 0 13 -1 13 -2z m-2736 -483 c3 -5 -1 -9 -9 -9 -8 0 -12 4 -9
9 3 4 7 8 9 8 2 0 6 -4 9 -8z m-454 -1042 c0 -5 -5 -10 -11 -10 -5 0 -7 5 -4
10 3 6 8 10 11 10 2 0 4 -4 4 -10z m3175 -548 c-3 -3 -11 0 -18 7 -9 10 -8 11
6 5 10 -3 15 -9 12 -12z m540 -212 c3 -6 -1 -7 -9 -4 -18 7 -21 14 -7 14 6 0
13 -4 16 -10z m-490 -250 c3 -5 1 -10 -4 -10 -6 0 -11 5 -11 10 0 6 2 10 4 10
3 0 8 -4 11 -10z m916 -37 c13 -16 12 -17 -3 -4 -17 13 -22 21 -14 21 2 0 10
-8 17 -17z m-626 -243 c10 -11 16 -20 13 -20 -3 0 -13 9 -23 20 -10 11 -16 20
-13 20 3 0 13 -9 23 -20z m224 -288 c7 -13 6 -19 -2 -19 -7 0 -13 9 -13 19 0
10 1 18 3 18 1 0 7 -8 12 -18z m111 -188 c0 -8 -19 -13 -24 -6 -3 5 1 9 9 9 8
0 15 -2 15 -3z m-5883 -539 c0 -8 -4 -12 -9 -9 -5 3 -6 10 -3 15 9 13 12 11
12 -6z m-160 -100 c0 -8 -4 -12 -9 -9 -5 3 -6 10 -3 15 9 13 12 11 12 -6z
m-1000 -1337 c-3 -8 -6 -5 -6 6 -1 11 2 17 5 13 3 -3 4 -12 1 -19z m4633
-1787 c0 -83 29 -417 50 -581 124 -949 443 -1891 927 -2734 207 -360 468 -739
703 -1018 l31 -37 -11 -348 c-29 -931 -95 -1928 -211 -3183 -28 -307 -92 -953
-110 -1105 -4 -38 -8 -109 -8 -157 l-1 -88 -165 0 -164 0 -31 103 c-17 56 -53
170 -80 252 -27 83 -72 224 -99 315 -58 192 -208 661 -322 1006 -43 133 -79
249 -79 259 0 17 13 18 210 13 l210 -5 0 533 c0 293 -4 535 -8 538 -44 27
-498 46 -637 27 -44 -7 -97 -13 -118 -14 l-39 -2 -93 255 c-51 140 -134 363
-185 495 -371 967 -559 1549 -715 2204 -159 672 -270 1403 -315 2081 -26 390
-40 1086 -24 1201 l6 44 639 -3 639 -2 0 -49z m1292 24 c4 -16 30 -140 57
-275 187 -922 291 -1751 341 -2720 13 -242 25 -1000 17 -1000 -12 0 -207 268
-320 441 -506 769 -870 1652 -1051 2549 -63 313 -108 652 -123 919 l-6 116
539 0 539 0 7 -30z m1695 -265 c-6 -263 -22 -556 -32 -586 -2 -8 -152 -10
-542 -6 -296 3 -569 2 -606 -2 l-67 -8 0 -79 0 -79 600 0 600 0 0 -28 c0 -98
-92 -713 -142 -952 -124 -589 -410 -1143 -782 -1514 l-91 -91 -7 180 c-14 373
-29 667 -44 875 -51 727 -173 1579 -330 2315 -26 121 -49 231 -51 245 l-5 25
753 0 752 0 -6 -295z m-4467 -124 c0 -560 19 -917 75 -1435 14 -124 25 -226
25 -227 0 -10 -159 -28 -250 -28 -318 0 -618 144 -911 437 -179 179 -302 352
-419 592 -134 273 -214 539 -280 933 -11 64 -20 123 -20 130 0 9 185 12 890
12 l890 0 0 -414z m1724 -6302 c3 -8 2 -12 -4 -9 -6 3 -10 10 -10 16 0 14 7
11 14 -7z m-4614 -598 c0 -3 -4 -8 -10 -11 -5 -3 -10 -1 -10 4 0 6 5 11 10 11
6 0 10 -2 10 -4z m7537 -1662 c38 -5 50 -10 46 -20 -8 -21 -503 -20 -503 1 0
11 21 15 108 18 229 6 299 7 349 1z m-749 -191 c6 -38 14 -83 18 -100 l7 -33
-147 0 -146 0 0 100 0 100 128 0 128 0 12 -67z m752 58 c0 -6 -7 -40 -15 -78
-9 -37 -18 -78 -20 -90 -5 -23 -6 -23 -199 -23 l-194 0 -7 78 c-3 42 -9 87
-12 100 l-5 22 226 0 c134 0 226 -4 226 -9z m-3532 -238 l-3 -28 -572 -3 -573
-2 0 -121 c0 -122 9 -159 44 -188 13 -11 8 -22 -37 -84 l-52 -71 -6 90 c-4 49
-14 120 -22 158 -14 66 -14 69 4 73 16 5 19 15 19 74 0 39 -4 69 -10 69 -5 0
-10 14 -10 30 l0 30 611 0 610 0 -3 -27z m-998 -246 c0 -2 -10 -12 -22 -23
l-23 -19 19 23 c18 21 26 27 26 19z m341 -37 c127 -23 277 -131 355 -254 l29
-46 72 0 73 0 20 -39 c20 -41 70 -182 70 -200 0 -6 -7 -7 -17 -4 -12 5 -14 3
-8 -8 6 -11 5 -12 -6 -1 -20 18 -99 16 -99 -4 0 -13 12 -15 67 -13 66 2 67 2
75 -27 13 -44 20 -242 9 -249 -5 -3 -13 0 -17 6 -3 6 0 15 7 20 11 7 10 9 -3
9 -10 0 -18 -5 -18 -11 0 -5 -5 -7 -12 -3 -7 4 -25 9 -40 11 -21 2 -28 -1 -28
-15 0 -14 -2 -15 -10 -2 -8 12 -10 11 -10 -6 0 -32 12 -37 27 -12 l14 23 -6
-22 c-4 -14 -2 -23 4 -23 6 0 11 6 12 13 0 10 2 10 6 0 2 -7 14 -13 24 -13 11
0 17 5 14 10 -3 6 -1 10 4 10 6 0 11 -5 11 -11 0 -6 7 -9 15 -5 19 7 19 -16 0
-130 -17 -99 -25 -125 -67 -236 -23 -61 -34 -78 -49 -78 -11 0 -18 4 -15 8 3
5 -13 26 -34 47 -22 22 -40 35 -41 30 0 -6 -2 -20 -5 -32 -2 -12 0 -24 5 -28
5 -3 8 6 7 20 -2 13 1 22 6 19 5 -3 7 -12 4 -20 -3 -8 8 -29 24 -48 17 -18 30
-40 30 -47 0 -8 -20 -40 -45 -72 l-46 -58 -36 43 c-19 24 -38 44 -42 46 -8 3
-71 -63 -71 -74 0 -3 14 -23 30 -44 17 -21 30 -40 30 -43 0 -11 -107 -66 -159
-81 -67 -20 -169 -20 -236 -2 -58 16 -174 60 -219 83 -151 76 -283 266 -343
489 -23 87 -26 118 -26 264 0 147 3 176 26 265 40 150 114 290 201 380 81 82
137 118 239 151 80 26 119 29 198 14z m744 -139 c-8 -69 -2 -67 -110 -34 -86
27 -84 33 17 67 51 17 95 30 97 29 2 -1 0 -29 -4 -62z m-3 -273 c2 -62 0 -117
-3 -121 -3 -4 -13 20 -23 55 -9 35 -27 89 -40 121 l-24 57 43 0 44 0 3 -112z
m-179 -145 c-13 -2 -33 -2 -45 0 -13 2 -3 4 22 4 25 0 35 -2 23 -4z m207 -85
c0 -18 -2 -20 -9 -8 -6 8 -7 18 -5 22 9 14 14 9 14 -14z m10 -102 c0 -3 -4 -8
-10 -11 -5 -3 -10 -1 -10 4 0 6 5 11 10 11 6 0 10 -2 10 -4z m-3 -51 c0 -8 -4
-15 -9 -15 -10 0 -11 14 -1 23 9 10 10 9 10 -8z m5 -70 c7 16 7 15 2 -5 -3
-14 -6 -30 -6 -37 -2 -27 -15 -2 -15 29 0 20 2 25 5 13 l5 -20 9 20z m68 -227
c24 -121 49 -218 54 -218 6 0 56 13 111 29 l100 28 -3 114 c-1 63 -5 139 -8
169 -5 51 -4 56 15 56 11 0 17 -4 15 -8 -3 -4 2 -8 11 -8 13 0 14 4 5 20 -6
12 -17 17 -28 14 -13 -5 -14 -4 -3 4 11 8 11 10 0 15 -8 3 -9 6 -3 6 19 2 55
-45 48 -62 -3 -9 -11 -14 -18 -10 -6 4 -5 -1 3 -10 7 -9 22 -17 32 -17 10 0
20 -4 24 -10 3 -5 12 -7 19 -4 7 3 19 -3 27 -13 13 -16 12 -17 -4 -4 -9 8 -20
11 -24 8 -3 -4 -13 -2 -22 5 -9 6 -2 -3 15 -21 17 -17 40 -33 51 -34 12 0 19
-5 17 -9 -3 -5 -11 -5 -17 -2 -7 4 8 -14 33 -40 44 -46 44 -46 31 -83 -8 -21
-26 -66 -42 -101 l-28 -63 -53 2 c-43 1 -65 -5 -113 -31 -56 -30 -64 -31 -129
-25 l-69 6 7 -58 6 -58 -52 2 c-29 1 -55 2 -58 2 -3 1 -4 122 -4 271 1 157 -2
268 -7 264 -5 -3 -9 2 -9 11 0 9 4 13 10 10 5 -3 9 2 8 12 -2 27 1 67 6 62 2
-2 23 -102 46 -221z m-83 105 c1 -22 -1 -24 -8 -10 -6 9 -7 22 -4 27 9 14 10
13 12 -17z m-27 -297 c0 -205 -1 -214 -20 -219 -11 -3 -23 0 -27 5 -3 7 -1 8
5 4 21 -13 12 10 -12 33 -18 17 -32 22 -49 17 -26 -6 -46 17 -26 29 5 4 8 3 7
-2 -3 -9 5 -13 24 -13 6 0 3 9 -7 20 -17 19 -17 22 19 100 20 44 46 116 58
160 12 44 23 80 25 80 1 0 3 -96 3 -214z m-245 -16 c-8 -13 -32 -2 -32 15 0
10 5 11 19 4 10 -6 16 -14 13 -19z m22 -26 c-3 -3 -12 -4 -19 -1 -8 3 -5 6 6
6 11 1 17 -2 13 -5z m979 -126 c10 -23 18 -44 17 -46 -2 -2 -57 -4 -122 -5
l-120 -2 22 25 c12 14 23 27 24 28 2 4 129 38 149 41 6 0 20 -18 30 -41z
m-816 -14 c6 -6 3 -10 -10 -11 -11 -1 -20 3 -20 8 0 6 -5 7 -12 3 -6 -4 -8 -3
-5 4 8 12 33 10 47 -4z m464 -33 c4 -5 -3 -7 -14 -4 -23 6 -26 13 -6 13 8 0
17 -4 20 -9z m-37 -37 c-3 -3 -12 -4 -19 -1 -8 3 -5 6 6 6 11 1 17 -2 13 -5z
m73 -8 c0 -2 -8 -10 -17 -17 -16 -13 -17 -12 -4 4 13 16 21 21 21 13z"/>
<path d="M25027 22373 c-4 -3 -7 -42 -7 -85 l0 -78 2585 0 2585 0 0 85 0 85
-2578 0 c-1418 0 -2582 -3 -2585 -7z"/>
<path d="M51207 22373 c-4 -3 -7 -42 -7 -85 l0 -78 2620 0 2621 0 -3 83 -3 82
-2611 3 c-1436 1 -2614 -1 -2617 -5z"/>
<path d="M56870 22295 l0 -85 2615 0 2615 0 0 85 0 85 -2615 0 -2615 0 0 -85z"/>
<path d="M40530 22004 c-359 -44 -611 -117 -900 -260 -271 -135 -457 -269
-670 -484 -232 -233 -357 -408 -496 -695 -117 -241 -198 -510 -236 -785 -17
-127 -17 -527 0 -645 65 -433 199 -781 430 -1120 100 -148 177 -238 318 -375
132 -128 195 -182 299 -256 361 -258 762 -411 1210 -465 144 -17 445 -15 595
5 572 76 1073 320 1471 716 419 416 659 895 745 1485 24 165 24 493 0 669 -42
308 -155 650 -296 897 -23 40 -51 90 -62 109 -28 49 -116 173 -178 250 -196
245 -452 467 -715 618 -107 61 -333 165 -440 202 -289 99 -477 131 -800 135
-132 2 -256 1 -275 -1z m506 -1559 l-7 -725 725 0 726 0 0 -260 0 -260 -730 0
-730 0 0 -233 c0 -129 -3 -457 -7 -730 l-6 -497 -97 0 c-53 0 -172 3 -263 7
l-167 6 5 196 c3 108 7 432 10 721 l5 526 -725 -4 -725 -4 0 266 0 266 724 0
724 0 6 103 c3 56 8 383 10 727 3 344 6 625 6 625 0 0 118 -1 262 -3 l261 -3
-7 -724z"/>
<path d="M25024 18651 c-2 -2 -4 -40 -4 -83 l0 -78 2585 0 2585 0 0 79 0 79
-57 6 c-63 7 -5102 4 -5109 -3z"/>
<path d="M51243 18652 l-43 -3 0 -80 0 -79 2620 0 2620 0 0 80 0 80 -32 2
c-63 3 -5123 3 -5165 0z"/>
<path d="M70216 16810 c-7 -56 -40 -294 -121 -875 -26 -181 -48 -350 -50 -375
-2 -25 -6 -52 -9 -60 -3 -8 -28 -184 -57 -390 -62 -458 -69 -509 -67 -518 1
-4 -1 -14 -5 -22 -5 -13 -31 -194 -43 -305 -2 -22 -13 -98 -24 -170 -17 -112
-66 -467 -141 -1005 -11 -80 -33 -235 -48 -345 -16 -110 -28 -201 -27 -202 0
0 46 14 101 32 55 18 168 54 250 80 83 25 193 60 245 78 52 17 100 32 105 33
6 1 35 9 65 19 76 23 80 25 83 24 1 -1 20 6 42 15 22 8 74 24 115 36 110 32
151 51 146 69 -3 9 -19 120 -36 246 -17 127 -33 237 -37 245 -3 8 -5 29 -4 46
1 18 -3 35 -8 39 -6 3 -9 11 -6 16 6 8 -36 324 -85 654 -11 72 -22 148 -24
170 -6 55 -57 421 -116 835 -27 190 -52 365 -55 390 -3 25 -21 160 -40 300
-20 140 -38 275 -41 300 -4 25 -9 49 -12 54 -3 5 -6 25 -8 45 -2 20 -4 43 -4
51 -3 31 -71 525 -74 535 -1 6 -6 -15 -10 -45z"/>
<path d="M11568 16303 c-3 -76 -5 -97 -11 -113 -3 -8 -24 -170 -47 -360 -23
-190 -44 -356 -47 -369 -5 -19 -3 -22 8 -16 12 8 12 6 0 -8 -7 -9 -11 -24 -7
-32 3 -8 2 -15 -3 -15 -8 0 -24 -112 -27 -195 -1 -22 -5 -48 -9 -58 -4 -9 -5
-31 -3 -47 3 -16 2 -31 -2 -32 -9 -4 -93 -695 -85 -707 3 -6 1 -11 -5 -11 -8
0 -10 -14 -7 -40 2 -22 0 -40 -5 -40 -6 0 -8 -18 -6 -40 2 -22 1 -41 -2 -42
-8 -4 -52 -377 -45 -387 3 -5 1 -12 -5 -16 -17 -11 -11 -44 10 -55 25 -13 663
-231 666 -227 4 3 -17 169 -23 187 -3 8 -6 33 -8 55 -6 95 -18 195 -24 195 -3
0 -7 32 -9 72 -1 39 -7 77 -12 83 -6 7 -7 15 -3 18 3 4 0 7 -8 7 -11 0 -11 2
-1 8 10 7 3 83 -32 368 -25 197 -48 389 -52 427 -5 52 -10 67 -23 67 -9 0 -12
3 -6 8 14 9 19 72 7 72 -6 0 -8 8 -6 18 3 9 -16 181 -42 382 -25 201 -46 373
-46 383 1 9 -2 16 -6 13 -4 -2 -7 17 -8 42 0 60 -6 114 -13 127 -3 5 -4 26 -2
47 1 23 -2 38 -9 38 -6 0 -9 4 -5 10 8 13 -17 230 -27 230 -4 0 -9 -21 -10
-47z"/>
<path d="M25024 14931 c-2 -2 -4 -40 -4 -83 l0 -78 2585 0 2585 0 0 79 0 79
-60 7 c-63 7 -5098 3 -5106 -4z"/>
<path d="M51280 14853 l0 -83 2580 0 2580 0 0 80 0 80 -32 3 c-18 1 -1179 2
-2580 2 l-2548 0 0 -82z"/>
<path d="M56908 14932 l-38 -3 0 -80 0 -79 2615 0 2615 0 0 79 0 79 -60 7
c-57 7 -5052 4 -5132 -3z"/>
<path d="M32772 14548 l3 -83 1933 -3 1932 -2 0 85 0 85 -1935 0 -1936 0 3
-82z"/>
<path d="M36780 14545 l0 -85 1923 2 1922 3 3 83 3 82 -1926 0 -1925 0 0 -85z"/>
<path d="M40770 14545 l0 -85 1975 0 1975 0 0 85 0 85 -1975 0 -1975 0 0 -85z"/>
<path d="M44870 14545 l0 -85 2053 2 2052 3 3 83 3 82 -2056 0 -2055 0 0 -85z"/>
<path d="M13552 14370 c0 -14 2 -19 5 -12 2 6 2 18 0 25 -3 6 -5 1 -5 -13z"/>
<path d="M13531 14239 c-11 -86 -11 -103 0 -110 12 -7 11 -9 -1 -9 -12 0 -20
-34 -38 -167 -13 -93 -36 -260 -52 -373 -16 -113 -45 -322 -65 -465 -42 -305
-93 -666 -134 -960 -16 -115 -28 -212 -25 -214 2 -3 42 7 87 22 45 14 125 40
177 56 389 122 392 123 387 145 -3 12 -11 62 -17 111 -7 50 -15 97 -18 105 -3
8 -4 19 -3 24 3 12 -79 598 -86 616 -3 8 -5 29 -4 46 1 18 -3 35 -8 39 -6 3
-9 11 -6 16 6 8 -39 349 -86 654 -11 72 -20 137 -21 145 -1 25 -48 374 -53
398 -10 45 -21 20 -34 -79z"/>
<path d="M68381 13828 c2 -18 0 -38 -3 -43 -3 -6 -9 -41 -13 -80 -4 -38 -8
-81 -10 -95 -36 -264 -85 -687 -81 -697 3 -7 1 -13 -5 -13 -7 0 -10 -16 -7
-40 2 -22 0 -40 -5 -40 -5 0 -8 -17 -6 -37 1 -21 -1 -45 -4 -53 -7 -18 -29
-203 -26 -216 1 -5 0 -16 -4 -24 -6 -18 -29 -203 -26 -216 1 -5 0 -16 -4 -24
-3 -8 -7 -34 -10 -57 -4 -37 -2 -42 18 -47 13 -3 32 -3 42 0 13 4 15 3 5 -4
-11 -7 -8 -11 13 -16 14 -4 31 -4 37 0 6 4 8 3 5 -2 -4 -8 234 -95 253 -93 3
0 19 -7 35 -15 20 -10 31 -12 34 -5 5 16 -39 371 -48 389 -4 8 -7 24 -5 35 4
23 -25 272 -33 295 -4 8 -5 18 -5 23 3 13 -19 201 -25 217 -4 8 -5 19 -4 24 3
13 -39 358 -46 376 -3 8 -5 32 -4 53 2 20 -2 37 -7 37 -5 0 -7 18 -5 40 3 22
1 40 -4 40 -5 0 -7 18 -5 40 2 23 0 40 -6 40 -6 0 -8 9 -5 19 3 11 -1 52 -7
93 -7 40 -12 83 -11 95 0 12 -4 25 -10 29 -7 4 -10 -5 -8 -28z"/>
<path d="M11210 13422 c0 -11 6 -23 13 -25 9 -4 9 -6 -1 -6 -7 -1 -10 -5 -7
-11 3 -5 2 -10 -3 -10 -5 0 -13 -33 -16 -72 -4 -40 -9 -86 -12 -103 -11 -81
-96 -766 -100 -810 -2 -27 -8 -76 -13 -109 -10 -58 -9 -59 22 -85 17 -14 100
-86 185 -158 87 -75 159 -130 166 -126 6 3 8 3 4 -2 -8 -9 21 -38 107 -110 33
-28 73 -62 90 -76 239 -209 348 -298 357 -293 7 4 8 2 4 -4 -4 -6 38 -48 101
-101 59 -49 108 -89 109 -88 1 3 -63 512 -65 512 -1 0 -4 32 -7 70 -2 39 -7
77 -11 85 -3 8 -5 29 -4 46 1 18 -2 35 -8 38 -6 4 -7 14 -4 22 3 9 0 20 -8 25
-8 5 -9 9 -4 9 11 0 9 72 -2 100 -3 8 -5 19 -4 24 3 13 -19 198 -26 216 -3 8
-5 29 -4 46 1 18 -2 35 -7 38 -5 3 -8 16 -5 28 2 13 -8 109 -22 213 -28 211
-30 232 -33 292 -1 23 -9 49 -18 57 -8 9 -11 16 -5 16 13 0 3 103 -12 112 -7
5 -46 19 -87 33 -41 13 -174 59 -295 100 -271 94 -305 105 -305 97 0 -4 -4 -2
-8 5 -4 6 -20 15 -35 18 -23 6 -27 4 -27 -13z"/>
<path d="M32417 12843 c-4 -3 -7 -330 -7 -725 l0 -718 2930 0 2930 0 0 -2445
0 -2445 -430 0 -430 0 0 -35 c0 -33 -4 -38 -52 -60 -29 -14 -88 -32 -131 -42
-45 -9 -76 -21 -74 -27 2 -6 80 -236 172 -510 93 -275 170 -495 172 -490 1 5
-21 218 -51 474 -29 256 -51 468 -49 473 2 4 1302 7 2889 7 l2884 0 -1 53 -1
52 -10 -37 c-17 -65 -31 -45 -24 35 3 39 11 140 16 222 8 125 59 635 86 859 6
48 17 74 67 149 50 76 57 94 48 109 -13 21 -4 42 60 144 l39 61 0 1727 0 1726
2805 0 2805 0 0 725 0 725 -8318 0 c-4575 0 -8322 -3 -8325 -7z m8468 -3883
l0 -2435 -22 -3 -23 -3 0 2441 0 2441 23 -3 22 -3 0 -2435z m-375 350 l0
-1820 -930 0 -930 0 0 1823 0 1822 930 -3 930 -2 0 -1820z m2570 0 l0 -1820
-935 0 -935 0 0 1820 0 1820 935 0 935 0 0 -1820z"/>
<path d="M70760 12679 c-14 -6 -47 -17 -75 -24 -27 -8 -142 -44 -255 -80 -202
-66 -253 -82 -460 -145 -58 -18 -109 -35 -115 -38 -5 -4 -17 -8 -26 -9 -9 -1
-59 -16 -110 -33 -51 -16 -99 -30 -106 -30 -6 0 -14 -4 -17 -9 -7 -11 -47
-280 -45 -301 1 -8 -1 -22 -5 -30 -3 -8 -7 -40 -9 -70 -1 -30 -5 -57 -8 -60
-5 -5 -52 -331 -54 -385 -1 -16 -5 -39 -8 -50 -4 -11 -8 -48 -11 -82 -2 -34
-7 -66 -10 -71 -3 -5 -8 -33 -10 -63 -3 -30 -16 -128 -30 -219 -13 -91 -24
-172 -25 -180 0 -8 -3 -26 -6 -40 -13 -64 -75 -534 -70 -539 3 -3 52 10 108
29 56 19 104 34 107 35 11 1 97 28 130 41 19 7 50 16 68 19 17 4 32 11 32 16
0 6 4 8 9 5 4 -3 35 3 67 13 60 20 395 126 514 163 36 11 90 29 120 38 30 10
116 37 190 60 155 48 348 109 370 117 8 3 21 7 28 9 26 5 26 15 10 132 -21
144 -99 702 -173 1237 -31 220 -60 435 -66 478 -12 80 -15 83 -59 66z"/>
<path d="M13803 11988 c-42 -12 -70 -25 -66 -31 3 -6 1 -7 -5 -3 -10 6 -137
-28 -192 -51 -8 -3 -20 -7 -25 -8 -32 -7 -302 -96 -313 -103 -13 -9 -96 -566
-87 -589 2 -7 0 -15 -6 -19 -6 -3 -9 -20 -8 -38 1 -17 -1 -38 -4 -46 -11 -28
-28 -177 -21 -193 3 -10 2 -17 -3 -17 -10 0 -50 -276 -42 -285 3 -3 43 8 90
24 46 16 99 32 117 36 17 4 32 11 32 16 0 6 4 8 9 5 5 -3 22 -2 37 3 16 5 92
30 169 54 77 25 221 71 320 102 227 71 235 74 235 91 0 8 -4 14 -10 14 -5 0
-7 6 -4 13 3 8 -23 209 -56 448 -34 239 -66 471 -72 517 -6 45 -13 82 -17 81
-3 0 -38 -10 -78 -21z"/>
<path d="M68154 11945 c3 -8 1 -17 -5 -20 -5 -4 -9 -18 -8 -33 0 -15 -6 -75
-15 -133 -8 -58 -15 -114 -15 -125 0 -10 -14 -120 -31 -244 -23 -177 -27 -227
-17 -236 92 -85 252 -212 261 -207 6 3 8 3 4 -2 -8 -9 21 -38 107 -110 33 -28
73 -62 90 -76 166 -145 277 -239 280 -239 8 0 -7 94 -16 106 -5 6 -6 13 -3 17
6 6 -24 272 -33 297 -4 8 -5 19 -4 23 2 11 -36 338 -55 472 -7 55 -16 125 -19
156 -8 96 -24 192 -32 200 -8 8 -123 50 -208 75 -27 8 -59 19 -70 25 -12 6
-27 11 -35 12 -8 2 -19 5 -25 8 -11 7 -99 35 -133 42 -17 4 -22 2 -18 -8z"/>
<path d="M11020 11869 c0 -8 -9 -86 -20 -173 -12 -88 -19 -165 -16 -172 3 -7
1 -16 -5 -20 -6 -3 -8 -21 -6 -39 3 -18 0 -38 -5 -43 -5 -5 -10 -46 -11 -90
-1 -45 -5 -82 -9 -82 -14 0 -9 -30 5 -30 9 0 9 -2 -1 -9 -9 -5 -28 -130 -61
-397 -27 -214 -49 -396 -49 -404 -1 -8 -31 -244 -66 -525 -36 -280 -66 -522
-66 -538 l0 -27 370 2 370 3 0 -502 c0 -277 4 -503 8 -503 5 0 40 11 78 23 38
13 93 30 122 36 l52 13 0 464 0 464 370 0 c360 0 370 1 370 19 0 11 -20 183
-45 383 -26 200 -48 383 -51 408 -2 25 -18 149 -34 275 -17 127 -32 253 -35
280 -12 129 -9 124 -190 277 -16 14 -84 72 -150 128 -66 57 -181 155 -255 219
-74 63 -137 118 -140 121 -3 3 -32 27 -65 55 -33 27 -125 106 -205 175 -231
200 -260 223 -260 209z"/>
<path d="M25653 11213 l-633 -3 0 -80 0 -80 2585 0 2585 0 0 79 0 78 -46 7
c-43 5 -3004 5 -4491 -1z"/>
<path d="M52423 11213 l-1143 -3 0 -80 0 -80 2580 0 2580 0 0 79 0 78 -46 7
c-43 6 -997 5 -3971 -1z"/>
<path d="M57538 11213 l-668 -3 0 -80 0 -80 2615 0 2615 0 0 79 0 78 -46 7
c-43 5 -2939 5 -4516 -1z"/>
<path d="M71070 10550 c-33 -12 -337 -108 -705 -223 -480 -151 -843 -266 -935
-297 -47 -15 -99 -31 -117 -34 -17 -4 -36 -13 -41 -19 -5 -7 -21 -102 -37
-212 -15 -110 -29 -211 -32 -223 -4 -19 -2 -23 13 -22 11 1 207 2 437 1 l417
-1 0 -634 0 -634 96 -51 c53 -28 101 -51 105 -51 5 0 9 308 9 685 l0 685 486
0 486 0 -6 28 c-3 15 -15 97 -26 182 -12 85 -24 162 -27 170 -3 8 -5 22 -4 30
1 8 -14 125 -33 260 -19 135 -38 273 -42 308 -3 34 -9 62 -13 61 -3 0 -17 -4
-31 -9z"/>
<path d="M63179 9566 c-2 -2 -35 -6 -73 -10 -38 -4 -80 -9 -93 -12 l-23 -6 0
-538 0 -537 159 5 c139 4 395 -9 472 -24 l25 -5 13 138 c7 76 19 178 27 226 8
49 12 98 8 109 -4 14 -2 18 5 14 7 -5 11 2 11 16 0 13 9 56 20 97 10 41 18 77
18 80 -1 3 2 15 6 26 12 30 22 62 46 140 11 39 28 85 36 103 8 18 17 40 19 50
2 9 10 30 19 47 15 28 15 30 -6 38 -11 4 -42 9 -67 10 -26 2 -51 6 -56 9 -22
14 -209 27 -381 28 -99 0 -182 -2 -185 -4z"/>
<path d="M22461 9365 c-55 -17 -116 -76 -137 -132 -36 -93 -3 -260 84 -426 32
-63 37 -68 61 -62 14 4 27 8 29 9 1 2 -5 38 -14 82 -13 64 -22 85 -48 110 -18
18 -39 47 -46 65 -8 19 -22 45 -32 58 -22 29 -24 70 -3 77 9 4 15 19 15 35 0
37 34 105 59 118 14 8 23 5 42 -16 13 -14 50 -48 82 -74 45 -38 66 -49 92 -49
29 0 36 -4 41 -25 4 -16 0 -35 -12 -53 -10 -15 -30 -51 -44 -80 -26 -51 -27
-55 -17 -141 l10 -89 32 5 c68 11 205 -86 240 -171 8 -18 17 -64 21 -101 l7
-67 72 4 c152 10 251 104 320 303 10 28 18 82 18 120 1 60 -3 78 -28 125 -53
96 -147 146 -331 175 -123 20 -186 50 -273 130 -92 84 -145 100 -240 70z"/>
<path d="M44165 9290 c-27 -11 -71 -37 -98 -59 -26 -22 -61 -42 -77 -46 -39
-9 -112 -82 -141 -142 -56 -116 -33 -215 76 -332 43 -47 78 -93 85 -117 l13
-39 13 35 c19 53 17 120 -6 163 -44 81 -6 172 51 121 16 -15 18 -11 34 59 9
40 25 88 35 105 24 39 73 65 123 65 66 0 86 60 48 144 -31 67 -67 77 -156 43z"/>
<path d="M47107 9199 c-134 -32 -231 -134 -377 -399 -120 -218 -184 -295 -322
-392 -32 -22 -58 -45 -58 -49 0 -4 17 -11 38 -15 20 -3 69 -12 107 -19 48 -9
72 -10 76 -3 11 17 210 30 402 26 135 -2 177 0 177 9 0 7 -10 56 -21 109 -21
94 -24 99 -74 149 -29 28 -56 62 -60 75 -4 14 -23 40 -41 58 -41 40 -49 100
-14 109 15 4 20 14 20 40 0 106 47 174 134 193 51 11 51 11 76 -22 113 -148
151 -180 204 -171 29 5 34 2 45 -25 18 -44 -9 -112 -44 -112 -7 0 -15 -15 -19
-32 -4 -18 -18 -50 -31 -70 -14 -21 -25 -46 -25 -55 0 -26 49 -206 59 -216 5
-5 39 -10 77 -13 38 -3 83 -9 101 -14 37 -10 37 -11 53 95 17 105 14 297 -5
390 -20 96 -55 185 -91 232 -76 100 -248 155 -387 122z"/>
<path d="M26541 9140 c-24 -11 -52 -20 -62 -20 -29 0 -90 -34 -121 -67 -74
-77 -76 -177 -6 -280 15 -23 31 -56 35 -73 5 -29 7 -30 22 -15 11 11 16 36 17
88 2 95 2 93 20 112 15 14 18 15 34 0 20 -18 28 -11 50 43 7 18 26 44 43 58
28 23 38 26 84 21 45 -5 55 -3 63 13 17 32 12 105 -8 123 -26 24 -115 22 -171
-3z"/>
<path d="M59365 9106 c-14 -14 -26 -41 -30 -70 -10 -63 7 -87 62 -91 75 -6
112 -45 133 -141 17 -78 18 -79 40 -59 16 14 23 15 34 6 26 -22 29 -66 7 -115
-24 -51 -26 -83 -10 -140 l11 -40 22 45 c12 25 47 70 77 100 88 85 112 196 64
290 -25 47 -91 115 -128 130 -17 7 -48 25 -68 41 -88 68 -173 85 -214 44z"/>
<path d="M54967 9092 c-24 -26 -31 -90 -15 -122 12 -22 19 -25 64 -22 63 4 97
-21 131 -96 23 -53 24 -54 44 -36 18 16 21 16 36 1 10 -10 16 -30 15 -54 -6
-108 -4 -123 17 -155 l21 -33 0 30 c0 17 11 48 25 70 63 104 69 120 69 175 -1
31 -8 69 -17 86 -25 48 -104 113 -146 120 -20 3 -56 15 -80 27 -25 11 -68 23
-95 25 -42 3 -54 0 -69 -16z"/>
<path d="M52680 8897 c-55 -17 -130 -101 -195 -216 -68 -122 -105 -165 -201
-237 -40 -29 -84 -68 -98 -86 -123 -162 -29 -449 180 -548 95 -46 90 -55 68
125 -4 38 -4 38 21 -20 21 -50 31 -74 51 -113 4 -8 214 102 214 112 0 7 -11
44 -24 82 -45 131 -93 231 -129 272 l-20 22 35 0 35 0 23 94 24 95 -22 44
c-12 24 -22 49 -22 56 0 6 -4 11 -10 11 -19 0 -42 49 -36 75 5 21 12 25 42 25
30 0 44 8 76 42 21 23 46 54 56 70 43 74 152 -1 152 -104 0 -27 4 -38 15 -38
22 0 19 -53 -5 -75 -11 -10 -31 -37 -45 -61 -14 -24 -34 -48 -44 -54 -20 -10
-51 -120 -51 -180 0 -27 6 -33 55 -55 39 -17 58 -32 66 -52 20 -50 50 -156 68
-241 l17 -83 51 52 52 53 -32 44 c-18 24 -58 75 -89 113 -32 37 -58 73 -58 79
0 7 13 51 29 99 61 183 69 375 19 482 -49 106 -155 152 -268 116z"/>
<path d="M29245 8877 c-67 -23 -101 -44 -143 -92 -77 -88 -83 -228 -16 -412
29 -80 36 -85 99 -59 33 14 35 17 35 65 0 41 -5 55 -30 83 -17 18 -35 51 -41
73 -6 22 -18 47 -26 57 -18 20 -14 73 6 73 8 0 19 15 23 34 13 50 38 82 75 97
50 21 58 18 97 -45 45 -73 98 -121 125 -114 49 13 46 -78 -4 -97 -14 -5 -25
-15 -25 -22 0 -7 -13 -26 -29 -43 -23 -23 -32 -45 -39 -95 -5 -36 -8 -67 -6
-69 2 -2 41 -10 86 -18 46 -8 94 -22 108 -32 57 -40 163 -242 175 -332 9 -71
12 -73 62 -37 58 41 192 190 243 270 l40 61 -32 39 -31 40 44 -4 43 -3 9 48
c6 28 6 66 1 90 l-9 42 -121 40 c-136 45 -172 66 -288 169 -44 39 -102 88
-127 108 -96 79 -219 113 -304 85z"/>
<path d="M20283 8806 c-12 -15 -31 -26 -44 -26 -13 0 -46 -14 -72 -31 -86 -53
-120 -172 -78 -265 25 -54 88 -124 112 -124 11 0 35 -7 54 -14 34 -14 35 -14
35 7 -1 32 -23 67 -51 80 -29 15 -37 58 -15 77 9 7 16 23 16 37 0 35 27 94 58
126 55 57 156 56 206 -3 32 -39 61 -163 53 -236 -5 -52 -5 -53 15 -43 28 15
48 70 48 133 0 74 -26 195 -49 226 -28 38 -77 62 -134 67 -29 2 -70 6 -93 9
-36 5 -44 2 -61 -20z"/>
<path d="M35164 8789 c-65 -15 -146 -69 -179 -120 -70 -104 -104 -290 -86
-463 7 -57 23 -148 36 -204 l25 -102 -29 -42 c-16 -24 -40 -71 -55 -105 -45
-109 -131 -392 -121 -402 3 -3 36 -16 73 -31 l67 -26 5 -319 5 -320 30 -14
c62 -30 331 -25 518 11 46 8 56 14 53 27 -26 82 -58 241 -63 305 -6 75 -5 79
13 72 10 -5 51 -13 89 -19 56 -8 85 -7 149 6 44 9 83 20 88 25 4 4 -10 53 -31
109 l-39 102 72 78 c39 43 80 88 92 101 l21 23 48 -128 c26 -70 51 -132 55
-136 11 -13 84 76 123 151 93 177 103 398 24 532 -33 58 -86 108 -204 196
-135 100 -170 143 -292 358 -109 193 -175 271 -263 311 -64 29 -160 40 -224
24z m25 -127 c40 -63 104 -130 135 -142 49 -18 43 -147 -10 -226 l-25 -37 16
-76 c10 -42 25 -97 34 -122 22 -56 18 -83 -17 -134 -37 -53 -99 -95 -150 -102
-55 -7 -59 6 -32 100 l21 75 -22 104 c-19 95 -24 106 -60 139 -21 20 -47 55
-57 77 -10 23 -30 50 -44 61 -41 33 -46 101 -7 101 16 0 19 8 19 55 0 96 35
147 113 165 52 13 54 12 86 -38z"/>
<path d="M13250 8599 c0 -5 5 -7 10 -4 6 3 10 8 10 11 0 2 -4 4 -10 4 -5 0
-10 -5 -10 -11z"/>
<path d="M26221 8494 c-64 -27 -117 -110 -115 -179 1 -36 75 -275 93 -300 4
-5 13 -29 21 -52 7 -24 17 -43 22 -43 5 0 7 -3 4 -8 -2 -4 1 -17 7 -28 10 -17
17 -20 35 -13 13 5 21 13 18 17 -3 5 1 9 9 9 8 0 12 -4 9 -9 -5 -8 41 9 61 23
6 3 27 12 48 18 47 16 47 18 3 197 -40 160 -94 317 -107 308 -5 -3 -6 1 -3 9
6 17 -24 53 -51 61 -11 3 -35 -2 -54 -10z"/>
<path d="M55388 8461 c-39 -5 -53 -13 -88 -54 -63 -71 -138 -101 -162 -63 -4
6 -8 31 -8 55 l0 44 -40 -6 c-48 -6 -78 -37 -120 -125 -31 -64 -120 -315 -120
-336 1 -6 32 -35 71 -65 l70 -53 -7 -146 -7 -145 39 6 c21 4 45 7 52 7 19 0
14 17 -8 23 -28 7 -25 25 7 33 19 5 41 0 79 -20 l53 -28 163 111 c229 156 221
149 207 189 -6 18 -10 34 -8 36 2 2 47 19 99 38 74 28 94 39 92 53 -5 29 -148
343 -172 378 -44 64 -93 82 -192 68z"/>
<path d="M20414 8419 c-50 -14 -65 -38 -52 -81 16 -54 80 -75 138 -45 27 14
50 69 42 100 -9 33 -64 45 -128 26z m86 -49 c0 -40 -70 -51 -84 -13 -8 21 10
33 52 33 25 0 32 -4 32 -20z"/>
<path d="M26670 8361 c0 -6 4 -11 9 -11 6 0 9 -8 7 -17 -1 -10 6 -45 16 -78
18 -60 19 -43 3 52 -7 39 -35 83 -35 54z"/>
<path d="M16582 8331 c-17 -17 -41 -31 -54 -31 -33 0 -110 -50 -140 -91 -49
-66 -63 -165 -33 -236 12 -28 13 -39 4 -47 -9 -8 -10 -8 -5 2 6 9 -11 12 -71
12 -122 0 -117 8 -121 -219 -3 -181 -2 -191 17 -210 24 -24 87 -30 78 -7 -11
29 67 126 102 126 31 0 60 -31 81 -88 36 -94 50 -218 50 -454 l0 -217 39 -11
c63 -17 407 -90 454 -96 43 -6 43 -6 55 32 17 57 42 213 52 318 9 99 5 459 -6
501 -6 25 -5 26 13 14 11 -6 27 -24 36 -38 16 -25 16 -17 17 137 0 90 -4 171
-10 181 -7 15 -27 20 -95 26 l-85 7 0 61 c0 34 -7 102 -16 150 -24 131 -66
171 -194 189 -36 4 -81 11 -101 14 -31 5 -40 1 -67 -25z m179 -111 c54 -15 85
-55 108 -140 32 -115 26 -236 -15 -298 -10 -15 -17 -31 -16 -35 1 -5 -1 -6 -6
-3 -4 2 -13 1 -20 -3 -8 -5 -8 -20 1 -61 17 -74 13 -87 -34 -101 -50 -16 -107
0 -148 41 -31 32 -45 91 -42 179 2 51 -30 111 -59 111 -27 0 -42 33 -30 64 5
14 13 26 17 26 5 0 14 27 20 61 14 73 50 124 107 150 47 21 67 23 117 9z"/>
<path d="M22373 8346 c-4 -8 -21 -16 -37 -18 -16 -1 -31 -9 -34 -15 -5 -16 37
-15 128 1 65 11 85 31 31 31 -16 0 -33 3 -37 8 -12 12 -42 8 -51 -7z"/>
<path d="M44457 8339 c35 -39 91 -159 111 -239 11 -41 27 -166 38 -277 l18
-203 41 0 c81 0 83 3 78 83 -14 248 -80 487 -156 568 -28 32 -92 73 -127 84
l-25 7 22 -23z"/>
<path d="M59222 8248 c-121 -180 -212 -419 -254 -668 -24 -143 -29 -455 -10
-595 6 -44 14 -101 18 -127 l7 -48 -839 -2 -839 -3 0 -40 0 -40 88 -3 87 -3 0
-99 0 -100 -765 0 -765 0 0 100 0 99 68 3 67 3 0 40 0 40 -588 3 -588 2 3 38
3 37 215 7 c267 9 459 25 477 39 39 33 40 144 2 292 -18 71 -20 105 -17 249 1
91 0 169 -3 172 -7 7 -91 -30 -306 -135 -150 -74 -167 -80 -242 -86 l-81 -6 0
-41 c0 -23 -3 -57 -6 -78 -6 -35 -8 -36 -58 -42 -28 -3 -145 -10 -261 -15
-304 -14 -367 -36 -386 -132 -4 -24 -11 -101 -15 -171 l-7 -128 -302 0 -303 0
-1 93 c-2 129 -16 244 -32 264 -8 9 -34 25 -59 36 -37 17 -77 22 -230 28 -102
4 -205 12 -230 18 -44 10 -216 18 -509 25 l-143 3 4 -111 c4 -138 28 -199 81
-210 18 -4 142 -11 277 -17 134 -5 246 -12 248 -14 3 -2 1 -29 -3 -59 l-6 -56
-722 -2 -722 -3 -3 -34 c-2 -20 2 -37 10 -42 7 -5 48 -9 91 -9 l77 0 0 -98 0
-99 -1427 -6 c-786 -4 -1580 -4 -1767 0 l-338 6 17 -32 c27 -53 11 -59 -33
-11 -23 24 -44 41 -48 37 -4 -3 1 -24 10 -47 9 -22 16 -50 16 -61 0 -37 -24
-14 -48 47 -13 32 -26 61 -28 63 -12 12 -11 -10 1 -63 17 -74 5 -111 -18 -56
-8 19 -21 55 -28 78 l-13 44 -170 -3 -170 -3 -16 54 c-20 67 -87 211 -134 289
l-35 57 -118 -18 c-193 -29 -406 -31 -491 -4 -18 6 -22 0 -30 -41 -6 -26 -16
-95 -22 -153 -6 -58 -13 -124 -16 -147 l-5 -43 -1080 0 -1079 0 0 56 c0 49 -2
56 -17 51 -10 -3 -70 -24 -133 -46 -219 -76 -449 -91 -615 -41 -96 29 -109 30
-113 2 l-3 -22 -172 2 -172 3 -5 435 c-5 396 -6 429 -18 370 -8 -36 -43 -191
-78 -345 -36 -154 -62 -290 -59 -303 3 -12 22 -48 41 -78 21 -32 42 -83 50
-118 7 -33 16 -72 20 -85 12 -42 -29 -21 -52 28 l-21 43 -12 -63 c-7 -35 -15
-72 -18 -81 -4 -17 12 -18 232 -18 l237 0 -6 -42 c-3 -24 -28 -242 -56 -485
l-50 -443 -234 -527 c-128 -291 -235 -535 -238 -543 -12 -34 68 -147 125 -176
25 -13 32 -14 42 -2 7 7 180 257 384 555 l371 542 66 203 c36 112 69 206 73
211 4 4 24 -71 45 -166 l39 -173 -142 -570 c-179 -719 -175 -703 -170 -708 10
-11 230 -29 238 -20 27 27 405 982 465 1172 37 119 36 153 -29 1085 l-7 87
1085 0 1085 0 6 -57 c3 -32 13 -155 21 -273 22 -313 45 -574 51 -580 13 -12
524 -2 650 14 159 19 167 22 160 52 -24 93 -33 328 -28 672 l2 172 2020 0
2020 0 0 -350 0 -350 40 0 40 0 2 348 3 347 610 0 610 0 8 -50 c4 -27 15 -122
25 -210 l18 -160 69 0 70 0 8 130 c4 72 10 167 13 213 l6 83 61 -3 62 -3 44
-210 c24 -115 45 -211 46 -213 1 -1 31 1 66 5 l64 8 5 205 5 205 289 0 289 0
-2 -177 -2 -178 75 0 75 0 20 68 c11 37 32 110 47 162 38 136 33 130 113 130
82 0 81 1 81 -113 0 -45 3 -119 7 -164 l6 -83 77 0 78 0 16 90 c9 50 23 131
32 180 l16 90 504 0 504 0 0 -350 0 -350 45 0 45 0 0 350 0 350 768 -2 767 -3
3 -347 2 -348 40 0 40 0 2 348 3 347 704 3 704 2 -6 -172 c-20 -526 -20 -630
-2 -693 38 -129 177 -490 352 -914 l76 -183 76 6 c100 9 141 16 141 27 0 4
-34 235 -74 513 -74 498 -75 507 -59 558 21 75 24 76 43 27 25 -66 677 -1013
700 -1017 23 -4 92 63 118 115 l20 38 -175 650 -175 650 17 189 c8 104 18 193
21 198 3 4 131 8 285 8 153 0 279 3 279 6 0 21 -104 204 -116 204 -8 0 -23
-14 -32 -31 -9 -17 -25 -41 -35 -53 -18 -21 -18 -21 -13 14 3 19 8 45 12 58
l6 22 -182 0 -182 0 8 93 c3 50 8 95 11 100 2 4 85 7 184 7 98 0 179 2 179 5
0 3 -9 24 -20 45 l-20 40 -158 0 -157 0 0 127 c0 197 -23 434 -46 461 -16 20
-21 21 -39 10 -19 -12 -24 -10 -38 12 -51 75 -137 191 -198 266 -102 127 -105
133 -105 211 0 117 66 286 128 331 l27 20 -54 11 c-59 13 -55 15 -90 -49 -33
-61 -107 -147 -157 -182 -40 -27 -57 -33 -102 -33 -48 0 -56 3 -80 33 -36 42
-51 89 -58 185 -5 65 -9 77 -24 77 -10 0 -31 -19 -47 -42z m-5882 -1383 c0
-53 -1 -55 -26 -55 -20 0 -25 4 -20 16 3 9 6 33 6 55 0 32 3 39 20 39 18 0 20
-7 20 -55z m1251 45 c5 0 9 -22 9 -50 0 -46 -2 -50 -24 -50 -21 0 -24 5 -28
48 -5 54 -2 66 19 58 8 -3 19 -6 24 -6z m-1578 -267 c4 -43 10 -88 13 -100 l6
-23 -591 0 -591 0 0 100 0 100 579 0 578 0 6 -77z m321 5 c3 -40 9 -85 12
-100 6 -26 4 -28 -25 -28 -35 0 -35 -1 -25 123 9 101 29 104 38 5z m884 -25
l-3 -98 -292 -3 -293 -2 0 100 0 100 296 0 295 0 -3 -97z m382 -3 l0 -100 -34
0 -33 0 13 52 c8 29 14 74 14 100 0 41 3 48 20 48 19 0 20 -7 20 -100z m1260
0 l0 -100 -481 0 -481 0 6 28 c3 15 9 60 12 100 l7 72 468 0 469 0 0 -100z
m3130 16 c0 -46 -3 -91 -6 -100 -6 -14 -77 -16 -705 -16 l-699 0 0 100 0 100
705 0 705 0 0 -84z"/>
<path d="M29010 8228 c-29 -32 -74 -128 -103 -224 l-25 -82 38 -11 c66 -20 70
-17 70 42 0 74 18 212 34 258 16 45 14 47 -14 17z"/>
<path d="M20500 8185 c0 -29 -5 -37 -27 -46 -48 -18 -109 -2 -150 39 l-36 36
-101 -17 c-103 -18 -152 -41 -150 -71 1 -9 -2 -13 -7 -10 -16 9 -42 -84 -44
-153 0 -17 -3 -29 -7 -26 -5 2 -8 -61 -8 -141 0 -105 3 -147 13 -153 6 -4 59
-8 117 -9 101 -1 105 -2 102 -22 -5 -34 14 -59 50 -65 18 -3 85 -17 149 -31
125 -26 290 -56 313 -56 8 0 17 9 21 19 3 10 17 22 30 25 24 6 25 10 25 76 0
64 2 70 21 70 20 0 20 3 17 203 -3 196 -4 204 -29 252 -33 63 -62 84 -119 89
-25 2 -53 7 -63 11 -9 4 -28 5 -42 3 -13 -3 -22 -1 -19 3 3 5 -9 9 -25 9 -29
0 -31 -3 -31 -35z m60 -89 c0 -3 -4 -8 -10 -11 -5 -3 -10 -1 -10 4 0 6 5 11
10 11 6 0 10 -2 10 -4z m-319 -513 c13 -16 12 -17 -3 -4 -10 7 -18 15 -18 17
0 8 8 3 21 -13z"/>
<path d="M26731 8134 c6 -21 12 -40 14 -42 1 -1 15 4 31 13 16 8 22 15 15 15
-8 0 -27 12 -43 26 l-27 27 10 -39z"/>
<path d="M46128 8081 c-8 -28 -13 -95 -13 -171 1 -110 4 -135 28 -205 43 -123
102 -220 187 -305 128 -128 285 -200 445 -203 l80 -2 0 330 c1 312 2 333 22
390 12 33 21 60 20 61 -1 0 -62 11 -136 23 -158 27 -161 28 -161 52 0 21 -2
22 -225 44 -88 9 -176 20 -197 24 l-36 8 -14 -46z"/>
<path d="M45478 8003 c-162 -170 -210 -233 -178 -233 40 0 120 75 120 111 0
45 49 86 50 42 1 -12 17 -1 51 37 31 35 49 62 47 75 -5 37 -34 27 -90 -32z"/>
<path d="M19770 7895 l0 -45 40 0 40 0 0 45 0 45 -40 0 -40 0 0 -45z"/>
<path d="M23540 7895 l0 -45 40 0 40 0 0 45 0 45 -40 0 -40 0 0 -45z"/>
<path d="M25830 7895 l0 -45 40 0 40 0 0 45 0 45 -40 0 -40 0 0 -45z"/>
<path d="M51910 7895 c0 -45 0 -45 35 -45 35 0 35 0 35 45 0 45 0 45 -35 45
-35 0 -35 0 -35 -45z"/>
<path d="M57640 7895 l0 -45 40 0 40 0 0 45 0 45 -40 0 -40 0 0 -45z"/>
<path d="M61410 7895 l0 -45 40 0 40 0 0 45 0 45 -40 0 -40 0 0 -45z"/>
<path d="M29517 7883 c-4 -3 -7 -28 -7 -55 0 -34 4 -48 14 -48 18 0 76 21 76
27 0 3 -10 23 -22 44 -20 36 -45 49 -61 32z"/>
<path d="M19770 7576 l0 -46 41 0 40 0 -3 43 c-3 41 -4 42 -40 45 l-38 3 0
-45z"/>
<path d="M23546 7604 c-3 -9 -6 -29 -6 -45 0 -27 2 -29 40 -29 l40 0 0 45 c0
44 0 45 -34 45 -22 0 -36 -6 -40 -16z"/>
<path d="M25837 7613 c-4 -3 -7 -24 -7 -45 0 -38 0 -38 40 -38 l40 0 0 45 c0
44 0 45 -33 45 -19 0 -37 -3 -40 -7z"/>
<path d="M29610 7576 l0 -46 41 0 40 0 -3 43 c-3 41 -4 42 -40 45 l-38 3 0
-45z"/>
<path d="M51910 7575 c0 -45 0 -45 35 -45 35 0 35 0 35 45 0 45 0 45 -35 45
-35 0 -35 0 -35 -45z"/>
<path d="M55680 7575 l0 -45 40 0 40 0 0 45 0 45 -40 0 -40 0 0 -45z"/>
<path d="M57640 7576 l0 -46 41 0 40 0 -3 43 c-3 41 -4 42 -40 45 l-38 3 0
-45z"/>
<path d="M61410 7575 l0 -45 40 0 40 0 0 45 0 45 -40 0 -40 0 0 -45z"/>
<path d="M15547 7493 c-29 -7 -41 -51 -22 -79 15 -23 19 -24 163 -24 145 0
172 5 172 35 0 5 -19 23 -43 39 l-42 29 28 -30 c39 -42 17 -53 -34 -17 -22 15
-42 31 -45 36 -3 4 -10 8 -15 8 -6 0 3 -12 20 -26 29 -24 41 -54 23 -54 -5 0
-35 20 -66 45 -58 44 -85 52 -139 38z"/>
<path d="M26581 7415 c-46 -46 -90 -86 -99 -89 -37 -11 -204 -36 -312 -47 -63
-6 -117 -12 -119 -14 -6 -7 19 -172 34 -221 8 -27 24 -60 34 -74 l20 -25 212
0 c147 0 213 -3 216 -11 4 -13 79 -2 112 16 11 5 36 10 55 10 40 0 42 -7 27
-85 -7 -36 -5 -43 23 -73 l31 -33 -34 -31 -34 -30 13 -72 c6 -39 14 -81 17
-93 l5 -23 -506 0 -506 0 0 100 0 100 414 0 415 0 15 22 c9 12 16 33 16 45 l0
23 -562 -2 -563 -3 0 -40 0 -40 88 -3 87 -3 0 -99 0 -100 -935 0 -935 0 0 100
0 99 68 3 67 3 0 40 0 40 -462 3 -463 2 6 -32 c3 -18 7 -39 10 -45 3 -10 80
-13 344 -13 l340 0 0 -100 0 -100 -325 0 -325 0 0 -32 c0 -18 5 -62 10 -97 8
-46 8 -67 -1 -77 -10 -12 36 -14 315 -14 l326 0 0 -350 0 -350 45 0 45 0 0
350 0 350 935 0 935 0 0 -350 0 -350 45 0 45 0 0 350 0 350 524 0 524 0 6 -42
c14 -92 46 -344 46 -360 0 -16 11 -18 84 -18 l84 0 6 63 c3 34 9 129 12 210
l7 148 80 -3 81 -3 45 -202 c25 -111 49 -204 52 -208 4 -3 41 -3 83 1 l76 7 0
118 c0 66 2 119 4 119 2 0 32 -13 67 -30 35 -16 115 -49 177 -74 126 -50 125
-50 138 33 6 39 5 41 -19 41 -14 0 -56 16 -94 36 -67 35 -70 35 -171 32 l-102
-3 0 68 0 67 156 0 156 0 -4 -22 c-3 -13 -7 -30 -9 -38 -3 -10 21 -23 80 -46
l85 -32 41 67 40 66 94 3 93 3 -7 -211 -8 -211 78 3 78 3 19 55 c10 30 39 123
63 205 l43 150 654 0 653 0 3 -347 2 -348 40 0 40 0 2 348 3 347 2305 5 2305
5 55 30 c58 32 83 67 95 136 l7 37 -930 7 c-512 4 -935 4 -941 1 -5 -4 -658
-4 -1451 0 l-1440 7 0 98 0 98 63 3 62 3 0 40 0 40 -732 3 -733 2 0 24 c0 13
-3 38 -6 55 l-7 32 395 -7 c366 -6 397 -5 432 11 57 27 126 102 159 174 26 54
30 74 29 145 0 85 -32 213 -55 221 -7 2 -115 -10 -242 -28 l-230 -32 0 -33
c-1 -18 -6 -37 -13 -41 -7 -4 -140 -11 -295 -14 -303 -7 -449 -20 -483 -42
-20 -13 -103 -185 -182 -378 l-36 -87 -266 2 -265 3 -6 165 c-9 225 -15 268
-47 297 -45 42 -122 57 -282 58 -133 0 -155 -3 -270 -34 -69 -18 -129 -37
-133 -41 -4 -3 8 -30 28 -58 19 -28 35 -55 35 -59 0 -5 13 -25 30 -44 21 -27
40 -38 68 -43 63 -10 67 -23 32 -111 -44 -110 -69 -157 -83 -152 -7 2 -16 28
-20 58 -16 105 -24 124 -79 170 -29 24 -57 43 -63 42 -21 -5 -163 220 -165
260 0 21 91 115 138 142 33 20 42 35 19 35 -7 0 -51 -38 -96 -85z m555 -476
c-3 -34 -6 -77 -6 -95 0 -30 -3 -34 -25 -34 -25 0 -25 0 -25 95 l0 95 31 0 32
0 -7 -61z m-4 -259 c4 -19 13 -63 22 -97 l14 -63 -44 0 -44 0 0 101 c0 98 1
100 22 97 16 -2 24 -12 30 -38z m828 37 c0 -2 -17 -46 -38 -98 l-38 -94 -202
-3 -202 -2 0 100 0 100 240 0 c132 0 240 -1 240 -3z m1820 -97 l0 -100 -626 0
-626 0 7 68 c3 37 8 82 11 100 l5 32 614 0 615 0 0 -100z m-1570 -65 c0 -28
-4 -35 -20 -35 -24 0 -24 3 -5 40 20 39 25 38 25 -5z"/>
<path d="M19300 7410 l0 -80 103 0 102 0 0 80 0 80 -102 0 -103 0 0 -80z"/>
<path d="M23885 7410 l0 -80 288 0 287 0 0 80 0 80 -287 0 -288 0 0 -80z"/>
<path d="M25020 7410 l0 -80 275 0 275 0 0 80 0 80 -275 0 -275 0 0 -80z"/>
<path d="M29950 7410 l0 -80 120 0 120 0 0 80 0 80 -120 0 -120 0 0 -80z"/>
<path d="M51280 7410 l0 -80 183 0 182 0 0 80 0 80 -182 0 -183 0 0 -80z"/>
<path d="M56025 7410 l0 -80 208 0 207 0 0 80 0 80 -207 0 -208 0 0 -80z"/>
<path d="M56870 7410 l0 -80 253 0 252 0 0 80 0 80 -252 0 -253 0 0 -80z"/>
<path d="M61755 7410 l0 -80 173 0 172 0 0 80 0 80 -172 0 -173 0 0 -80z"/>
<path d="M17194 7363 c10 -51 18 -289 11 -321 -4 -22 -12 -32 -26 -32 -17 0
-19 -8 -19 -71 l0 -71 30 4 c36 5 37 0 9 -36 -27 -35 -22 -39 27 -23 l39 14 3
229 c3 250 -3 285 -55 320 -25 16 -25 15 -19 -13z"/>
<path d="M19770 7125 l0 -165 40 0 40 0 0 165 0 165 -40 0 -40 0 0 -165z"/>
<path d="M23550 7125 l0 -165 35 0 35 0 0 165 0 165 -35 0 -35 0 0 -165z"/>
<path d="M25830 7125 l0 -165 40 0 40 0 0 165 0 165 -40 0 -40 0 0 -165z"/>
<path d="M29610 7125 l0 -165 40 0 40 0 0 165 0 165 -40 0 -40 0 0 -165z"/>
<path d="M51910 7125 l0 -165 35 0 35 0 0 165 0 165 -35 0 -35 0 0 -165z"/>
<path d="M55680 7125 l0 -165 40 0 40 0 0 165 0 165 -40 0 -40 0 0 -165z"/>
<path d="M57640 7125 l0 -165 35 0 35 0 0 165 0 165 -35 0 -35 0 0 -165z"/>
<path d="M61410 7125 l0 -165 40 0 40 0 0 165 0 165 -40 0 -40 0 0 -165z"/>
<path d="M20890 6655 c0 -291 2 -526 5 -524 2 3 17 41 32 85 l28 79 700 5
c385 3 689 6 675 8 -46 4 -51 14 -57 115 l-6 97 -611 2 -612 3 34 98 35 97
573 0 574 0 0 45 0 45 -557 0 -558 0 0 127 c0 117 -2 131 -23 166 -32 50 -72
69 -159 75 l-73 5 0 -528z"/>
<path d="M34761 6418 c-19 -51 -36 -99 -39 -106 -3 -10 5 -13 33 -10 l38 3 28
90 c35 113 35 115 1 115 -26 0 -30 -6 -61 -92z"/>
<path d="M35590 6508 c0 -2 14 -41 30 -88 16 -47 30 -93 30 -102 0 -16 13 -18
135 -18 74 0 135 4 135 9 0 5 16 19 36 30 34 20 36 24 30 59 -3 20 -11 54 -16
75 l-11 37 -184 0 c-102 0 -185 -1 -185 -2z"/>
<path d="M36110 6465 l0 -46 30 16 c16 8 37 29 45 45 l16 30 -46 0 -45 0 0
-45z"/>
<path d="M36288 6407 l-56 -102 166 -5 167 -5 -3 -105 c-2 -58 -14 -265 -27
-461 -34 -494 -34 -526 11 -658 68 -200 393 -1012 413 -1033 7 -8 207 14 216
24 3 3 -59 267 -138 587 l-144 582 33 147 c19 81 36 151 37 157 2 5 33 -78 69
-185 l65 -195 303 -440 c384 -559 389 -565 406 -565 23 0 89 66 115 114 l23
44 -194 436 c-106 240 -195 435 -197 433 -5 -6 219 -661 229 -667 6 -5 68
-146 68 -156 0 -7 -73 -34 -91 -34 -13 0 -21 12 -29 43 -19 70 -27 111 -28
132 -1 11 -142 434 -314 940 l-313 920 -87 7 c-47 3 -126 16 -174 28 -103 25
-254 85 -270 106 -8 10 -35 14 -105 14 l-94 0 -57 -103z"/>
<path d="M60640 6371 c27 -69 28 -71 47 -71 12 0 9 10 -12 48 -43 74 -60 85
-35 23z"/>
<path d="M43255 6357 c-4 -26 -5 -50 -2 -53 8 -8 20 60 15 83 -3 10 -8 -4 -13
-30z"/>
<path d="M43202 6325 c0 -16 2 -22 5 -12 2 9 2 23 0 30 -3 6 -5 -1 -5 -18z"/>
<path d="M17902 5930 c3 -8 33 -117 68 -242 35 -125 65 -226 66 -225 6 6 -18
162 -36 230 -21 86 -66 202 -88 232 -8 11 -12 13 -10 5z"/>
<path d="M26872 5828 c-7 -7 -12 -31 -12 -54 l0 -41 83 -6 c164 -13 337 -7
337 12 0 11 -69 46 -142 72 -59 21 -73 22 -120 12 -41 -8 -61 -8 -92 3 -46 17
-40 16 -54 2z"/>
<path d="M27323 5828 c-6 -7 -13 -31 -16 -54 l-5 -41 91 -7 c187 -13 341 -5
334 18 -2 6 -49 29 -105 52 -99 40 -103 41 -154 29 -43 -10 -60 -9 -92 2 -46
16 -41 16 -53 1z"/>
<path d="M28310 5828 c-19 -4 -64 -6 -100 -3 -60 5 -72 2 -150 -33 -66 -29
-86 -43 -88 -60 -3 -21 0 -22 70 -22 40 0 131 3 201 7 l128 6 -7 46 c-9 64
-13 69 -54 59z"/>
<path d="M54316 5824 c-30 -11 -48 -11 -83 -2 -34 8 -54 8 -86 -2 -62 -18
-167 -67 -167 -78 0 -15 125 -22 267 -15 l133 6 0 37 c0 20 -6 43 -12 52 -12
14 -18 14 -52 2z"/>
<path d="M54743 5824 c-26 -11 -43 -12 -83 -3 -41 9 -59 8 -102 -7 -66 -21
-148 -62 -148 -73 0 -14 128 -21 267 -14 l133 6 0 38 c0 21 -7 45 -16 53 -8 9
-16 16 -17 15 -1 0 -17 -7 -34 -15z"/>
<path d="M53110 5805 c-5 -14 -10 -37 -10 -49 0 -22 3 -23 123 -29 131 -7 237
0 237 15 0 5 -35 26 -77 46 -58 27 -88 36 -118 33 -73 -5 -90 -5 -117 3 -24 7
-29 5 -38 -19z"/>
<path d="M53490 5804 c-6 -14 -10 -36 -10 -48 0 -22 3 -23 123 -29 125 -6 237
0 237 13 0 12 -40 35 -113 64 -59 24 -72 25 -108 16 -29 -8 -50 -8 -71 -1 -43
15 -47 14 -58 -15z"/>
<path d="M20170 5695 c-27 -44 -30 -109 -7 -133 25 -24 158 -24 206 2 l33 18
-7 71 c-4 40 -8 73 -10 75 -2 2 -17 -4 -34 -12 -38 -20 -101 -21 -127 -1 -27
20 -30 19 -54 -20z"/>
<path d="M20575 5680 c-3 -5 -8 -39 -12 -75 l-6 -65 206 0 c113 0 212 3 221 6
30 11 17 42 -27 69 -24 14 -46 25 -50 25 -3 0 -7 -19 -9 -42 -3 -36 -7 -44
-26 -46 -38 -6 -50 12 -44 67 4 48 4 49 -26 56 -19 4 -51 0 -85 -11 -52 -16
-54 -16 -94 5 -24 12 -44 17 -48 11z"/>
<path d="M23193 5593 c-20 -15 -50 -27 -78 -31 -25 -2 -45 -7 -45 -11 0 -19
44 -73 67 -82 28 -10 79 -4 101 13 13 11 16 57 6 107 -8 37 -10 37 -51 4z"/>
<path d="M22541 5569 c-14 -5 -59 -9 -100 -7 -71 2 -82 -1 -156 -38 -125 -62
-118 -67 98 -61 101 2 190 7 196 11 18 12 12 107 -8 105 -3 0 -17 -5 -30 -10z"/>
<path d="M15070 4569 c-7 -11 -14 -45 -17 -74 l-6 -53 74 -6 c244 -18 478 -13
486 10 5 16 -81 63 -192 107 l-90 35 -63 -16 c-58 -16 -65 -16 -111 1 -62 22
-68 21 -81 -4z"/>
<path d="M36510 4321 c0 -18 -93 -111 -142 -143 -45 -29 -56 -44 -90 -118 -74
-158 -79 -175 -62 -199 8 -11 22 -21 29 -21 24 0 258 238 324 329 34 47 61 88
61 93 0 4 -27 21 -60 38 -33 17 -60 26 -60 21z"/>
<path d="M37950 4268 c-5 -13 -32 -80 -60 -150 -69 -171 -95 -210 -154 -232
-37 -14 -46 -22 -46 -42 0 -22 4 -24 58 -26 68 -2 206 3 210 7 2 2 15 54 28
117 14 62 38 148 54 190 25 65 38 118 28 118 -2 0 -27 9 -56 20 l-52 20 -10
-22z"/>
<path d="M34555 3938 c-120 -53 -135 -63 -135 -89 0 -18 9 -19 123 -19 119 0
397 17 404 24 2 2 -1 32 -7 67 l-11 64 -134 0 -134 0 -106 -47z"/>
<path d="M36818 3910 c-121 -39 -148 -52 -148 -76 0 -12 50 -14 285 -14 157 0
285 1 285 3 0 11 -33 113 -39 119 -3 4 -30 0 -59 -8 -49 -15 -59 -15 -117 0
-35 9 -70 16 -77 15 -7 0 -66 -18 -130 -39z"/>
<path d="M48145 3900 c-37 -41 -102 -72 -155 -73 -28 -1 -50 -3 -50 -5 0 -12
44 -85 62 -102 30 -28 135 -29 169 -1 20 16 24 28 23 78 -1 32 -8 73 -15 91
l-14 34 -20 -22z"/>
<path d="M47205 3839 c-16 -5 -77 -8 -135 -7 l-105 2 -118 -56 c-181 -88 -166
-94 191 -83 223 7 223 7 234 31 15 32 -1 118 -22 121 -8 1 -28 -3 -45 -8z"/>
</g>
</svg>
