<?xml version="1.0" standalone="no"?>
<!DOCTYPE svg PUBLIC "-//W3C//DTD SVG 20010904//EN"
 "http://www.w3.org/TR/2001/REC-SVG-20010904/DTD/svg10.dtd">
<svg version="1.0" xmlns="http://www.w3.org/2000/svg"
 width="300.000000pt" height="240.000000pt" viewBox="0 0 300.000000 240.000000"
 preserveAspectRatio="xMidYMid meet">
<metadata>
Created by potrace 1.10, written by Peter Selinger 2001-2011
</metadata>
<g transform="translate(0.000000,240.000000) scale(0.100000,-0.100000)"
fill="#000000" stroke="none">
<path d="M1522 1965 c-16 -13 -35 -38 -42 -55 -9 -22 -19 -30 -39 -31 -25 -1
-25 -2 4 -8 27 -6 33 -2 56 35 43 66 90 90 129 64 11 -8 8 -9 -12 -4 -44 10
-85 -20 -114 -83 -16 -37 -13 -36 -72 -23 -39 9 -100 4 -88 -7 2 -3 28 -6 58
-8 29 -1 63 -6 74 -10 18 -5 23 -1 33 26 16 48 59 89 92 89 32 0 71 -42 89
-95 9 -28 15 -33 28 -26 28 14 89 22 117 15 14 -3 32 -19 41 -35 21 -41 45
-39 37 4 -3 17 -9 34 -12 37 -3 3 -7 29 -9 58 -3 48 -2 52 20 53 18 1 19 2 5
6 -11 3 -28 -6 -43 -20 l-25 -26 20 -20 c25 -25 28 -46 5 -37 -8 3 -13 2 -10
-3 3 -5 -14 -6 -37 -4 -24 3 -59 1 -79 -5 -34 -9 -36 -9 -52 25 -19 40 -20 47
-5 37 8 -4 7 0 -1 15 -16 31 -69 61 -107 61 -19 0 -43 -10 -61 -25z"/>
<path d="M1960 1970 c22 -6 20 -8 -17 -14 -24 -4 -43 -11 -43 -14 0 -4 9 -45
20 -92 10 -46 17 -86 15 -88 -2 -2 -42 8 -90 23 -48 14 -88 25 -90 23 -10 -12
-43 -144 -37 -149 4 -3 44 -16 90 -29 l83 -23 -71 -65 -71 -65 25 -26 c22 -23
33 -26 88 -26 35 0 69 4 76 8 6 5 12 4 12 0 0 -5 9 -9 20 -10 14 -1 24 7 30
23 9 21 41 42 93 58 25 8 22 46 -3 46 -18 0 -19 -3 -10 -20 8 -16 8 -20 -4
-20 -8 0 -21 -3 -30 -6 -12 -4 -16 0 -16 15 0 12 7 24 16 28 13 5 12 9 -6 28
-15 16 -20 33 -18 56 2 26 -3 39 -21 53 -22 18 -23 24 -18 89 5 56 3 73 -9 81
-21 16 -7 48 20 44 16 -2 21 -9 19 -30 -2 -26 -1 -27 21 -13 22 14 36 12 36
-7 0 -5 -12 -13 -26 -18 -20 -8 -25 -15 -21 -33 3 -12 9 -39 12 -59 10 -54
-11 -49 -23 5 l-10 42 -1 -35 c0 -19 6 -43 13 -53 13 -17 16 -17 45 -3 42 22
68 20 96 -9 21 -20 25 -33 24 -80 -1 -31 1 -59 5 -62 3 -3 6 6 6 20 0 30 15
36 23 10 2 -10 8 -26 12 -36 6 -16 4 -17 -21 -12 l-29 5 30 -14 c17 -7 41 -17
54 -21 21 -6 23 -5 16 11 -60 137 -85 283 -56 336 14 28 48 47 84 49 20 1 20
2 2 6 -11 3 -31 16 -46 29 l-25 24 -39 -40 c-21 -22 -35 -40 -30 -40 5 0 -6
-16 -25 -35 -19 -19 -38 -35 -43 -35 -5 0 -7 19 -4 43 4 25 3 34 -2 22 -6 -15
-11 -4 -21 45 l-13 65 -61 1 c-37 0 -51 -2 -36 -6z m87 -35 c9 -24 -4 -30 -32
-15 -21 11 -27 11 -44 -4 -21 -19 -33 -63 -20 -72 5 -3 9 -24 8 -47 -1 -39 -3
-36 -20 33 -10 41 -18 81 -19 88 -1 28 116 44 127 17z m223 -38 c0 -6 -9 -2
-20 8 -20 18 -21 18 -53 -11 l-32 -29 34 37 c33 35 36 37 53 21 10 -9 18 -21
18 -26z m-97 -119 c-3 -40 -7 -74 -8 -76 -2 -2 -14 2 -27 9 -12 7 -38 12 -55
10 -30 -1 -33 1 -33 27 0 32 29 81 30 50 0 -27 16 -22 58 17 20 19 38 35 39
35 0 0 -1 -33 -4 -72z m-303 -15 c99 -29 109 -41 116 -131 2 -23 10 -52 19
-64 8 -13 15 -36 14 -53 0 -16 -3 -24 -6 -18 -3 9 -15 5 -39 -14 -32 -24 -42
-26 -112 -24 -42 1 -81 6 -85 10 -5 5 24 38 63 73 40 36 68 68 63 71 -4 3 -42
15 -83 27 -41 12 -79 25 -83 30 -11 9 21 120 34 120 6 0 50 -12 99 -27z"/>
<path d="M1557 1888 c-42 -56 -42 -70 3 -96 l40 -23 40 23 c22 13 40 28 40 33
0 6 -10 28 -23 50 -31 54 -66 59 -100 13z m58 16 c9 -4 24 -23 35 -44 l19 -37
-38 -18 c-37 -16 -40 -16 -65 0 -14 10 -26 19 -26 22 0 14 46 83 56 83 1 0 10
-3 19 -6z"/>
<path d="M1578 1873 c-28 -34 -29 -42 -4 -58 23 -15 27 -15 50 0 24 16 25 18
10 46 -17 33 -34 37 -56 12z m40 -13 c16 -26 8 -40 -23 -40 -32 0 -37 12 -19
38 19 27 26 27 42 2z"/>
<path d="M697 1885 c-27 -7 -51 -16 -54 -19 -3 -3 -12 2 -18 11 -12 16 -15 16
-50 -2 -20 -11 -46 -32 -57 -48 -24 -34 -88 -68 -115 -61 -24 7 -80 -20 -104
-49 -15 -20 -15 -23 18 -69 43 -59 69 -78 106 -78 24 0 28 -3 22 -17 -5 -10
-11 -41 -14 -70 -6 -46 -5 -52 13 -57 28 -7 30 -3 16 38 -7 21 -9 54 -5 81 7
40 5 45 -13 45 -36 0 -100 65 -116 117 -6 19 -1 25 31 38 23 10 39 12 41 6 5
-15 142 57 142 74 0 23 61 57 77 43 7 -6 13 -18 13 -27 -1 -14 -2 -14 -14 2
-12 16 -17 16 -35 5 -12 -7 -19 -18 -17 -25 7 -18 -164 -109 -174 -93 -6 9
-13 9 -29 1 -26 -14 -26 -13 4 -60 30 -44 63 -64 105 -64 16 0 30 -1 30 -3 0
-1 -7 -15 -15 -30 -29 -55 -12 -145 29 -152 11 -2 16 0 12 6 -4 6 28 29 74 54
51 28 80 49 80 60 0 14 -16 8 -82 -27 -46 -25 -89 -45 -95 -45 -31 0 -6 19 82
63 92 45 95 48 95 81 0 31 -3 34 -35 40 l-35 7 16 30 c8 17 15 51 14 77 -3 73
-1 92 9 92 5 0 7 -10 4 -21 -4 -13 0 -26 9 -33 20 -15 30 -55 38 -151 l7 -80
1 68 c2 77 -15 158 -35 170 -32 19 -5 38 75 52 38 6 42 5 42 -13 0 -18 -39
-39 -62 -34 -5 1 -8 -5 -8 -13 0 -8 6 -12 14 -9 8 3 17 1 21 -5 3 -6 -1 -14
-9 -17 -30 -12 -18 -34 19 -34 28 0 37 -5 50 -30 13 -26 14 -30 1 -30 -8 0
-17 -4 -21 -9 -3 -6 7 -9 21 -8 15 1 29 -4 31 -10 3 -8 -5 -13 -19 -14 -19 -1
-18 -2 6 -8 17 -3 30 -10 30 -16 0 -5 6 -16 13 -24 12 -11 6 -17 -33 -38 -29
-16 -55 -23 -70 -19 -23 6 -23 5 -17 -46 3 -29 7 -55 9 -57 5 -6 164 -5 169 1
3 3 -1 11 -10 18 -17 14 -20 40 -4 40 5 0 17 -16 25 -35 8 -19 19 -35 24 -35
14 0 14 0 -35 88 -82 149 -125 240 -131 283 -5 31 -4 40 4 35 8 -5 12 2 12 21
0 54 -31 63 -123 38z m-77 -135 c0 -22 -12 -32 -87 -70 -49 -25 -91 -46 -95
-48 -11 -5 -68 54 -68 70 0 9 2 10 8 1 10 -16 212 93 213 115 1 26 28 -39 29
-68z m178 13 c2 -8 -5 -13 -17 -13 -12 0 -21 6 -21 16 0 18 31 15 38 -3z
m-202 -87 c-22 -34 -21 -36 18 -36 21 0 36 -6 40 -15 4 -11 -16 -26 -74 -55
-44 -22 -80 -47 -83 -57 -3 -12 -5 -8 -6 9 -1 25 7 32 72 65 72 38 72 38 37
41 -28 3 -39 -2 -58 -23 -24 -28 -45 -28 -22 0 11 13 8 15 -24 15 -20 0 -36 5
-36 10 0 6 20 10 44 10 40 0 48 4 72 35 30 40 46 40 20 1z m311 -142 c13 -28
8 -49 -8 -38 -6 3 -8 12 -5 20 3 8 1 14 -3 14 -5 0 -11 7 -15 15 -10 26 19 16
31 -11z m-22 -34 c8 -15 11 -30 8 -34 -4 -3 -28 -6 -55 -6 -45 0 -48 2 -48 25
0 18 5 25 19 25 11 0 22 4 25 8 11 18 38 8 51 -18z"/>
<path d="M497 1728 c-82 -42 -96 -53 -85 -64 11 -11 29 -5 105 34 64 32 93 53
93 65 0 9 -3 17 -7 17 -5 -1 -52 -24 -106 -52z"/>
<path d="M2335 1890 c3 -6 -5 -10 -19 -10 -40 0 -74 -20 -87 -52 -25 -61 11
-235 67 -321 19 -29 22 -42 14 -57 -14 -26 -13 -28 13 -27 15 0 27 10 38 33 9
18 12 35 7 36 -5 2 6 17 24 33 18 17 26 22 19 12 -8 -9 -11 -20 -9 -23 3 -3
15 8 27 24 23 32 27 47 11 37 -15 -9 -13 -3 25 76 45 94 47 148 8 178 -21 15
-24 20 -11 21 9 0 26 -12 38 -27 27 -35 22 -81 -21 -172 -16 -35 -27 -66 -24
-69 2 -3 18 23 34 57 16 35 31 56 35 49 3 -7 3 1 0 17 -4 23 -3 27 5 15 6 -9
11 -10 11 -3 0 6 3 20 6 30 5 15 4 16 -6 3 -9 -12 -10 -4 -8 35 2 39 0 50 -12
50 -8 1 -14 6 -12 13 4 20 -42 36 -67 23 -34 -19 -27 -49 12 -53 32 -3 32 -4
32 -55 -1 -61 -59 -183 -111 -234 l-33 -32 -21 34 c-24 40 -46 109 -62 196
-10 54 -9 65 6 88 12 17 25 25 39 23 30 -3 47 9 40 29 -5 12 -3 14 8 8 12 -8
12 -6 0 8 -15 18 -26 23 -16 7z m-25 -30 c0 -5 -8 -10 -19 -10 -44 0 -58 -58
-38 -155 9 -38 18 -78 22 -87 4 -10 3 -18 -2 -18 -14 0 -43 122 -43 180 0 41
5 56 25 75 24 25 55 33 55 15z m30 -368 c16 -6 17 -9 4 -26 -12 -17 -14 -17
-14 -3 0 9 -11 33 -25 53 -14 20 -25 42 -25 48 1 6 10 -6 21 -27 11 -21 28
-41 39 -45z"/>
<path d="M1310 1876 c-33 -12 -33 -13 -10 -19 13 -3 27 -2 30 3 3 5 24 14 45
19 l40 9 -35 0 c-19 0 -51 -5 -70 -12z"/>
<path d="M2396 1877 c-22 -16 -19 -71 4 -73 8 -1 23 -2 33 -3 11 -1 17 -9 17
-25 0 -31 -40 -136 -51 -136 -5 0 -9 -10 -10 -22 0 -13 -4 -32 -9 -43 -7 -15
-8 -10 -4 16 5 34 4 36 -34 47 -22 7 -42 12 -46 12 -9 0 0 -30 25 -89 l19 -43
25 23 c13 13 25 30 25 37 0 6 4 12 10 12 5 0 6 7 3 17 -4 11 -3 14 6 9 16 -10
64 98 65 149 1 36 -2 40 -26 43 -14 2 -31 9 -37 16 -12 14 -5 46 10 46 5 0 9
5 9 10 0 14 -13 13 -34 -3z m-37 -283 c-5 -15 -12 -31 -16 -37 -8 -13 -23 13
-23 41 0 17 6 22 25 22 22 0 24 -2 14 -26z"/>
<path d="M1710 1870 c0 -8 131 -1 140 7 2 2 -28 3 -68 2 -39 -1 -72 -5 -72 -9z"/>
<path d="M928 1840 c-35 -10 -62 -30 -88 -62 l-20 -26 54 -104 55 -103 79 3
78 3 15 37 c8 20 16 41 18 46 2 5 -2 6 -8 2 -6 -4 -17 -22 -25 -39 -11 -27
-19 -32 -52 -35 -59 -4 -101 6 -107 26 -3 9 -24 50 -46 90 l-41 74 33 33 c36
36 89 52 134 40 27 -6 89 -62 112 -100 9 -15 13 -17 18 -6 14 34 78 92 114
102 55 17 121 -9 156 -62 27 -42 41 -117 29 -164 -6 -23 -9 -25 -23 -13 -18
14 -18 14 3 -37 3 -8 1 -15 -5 -15 -6 0 -11 5 -11 10 0 16 -17 12 -24 -6 -4
-12 -2 -15 9 -11 25 10 25 -8 -1 -36 -18 -19 -35 -27 -59 -27 -19 0 -35 5 -35
11 0 5 -5 7 -11 4 -6 -4 -5 2 3 14 7 12 19 21 26 21 7 0 15 7 18 15 5 12 10
13 20 4 11 -9 14 -8 13 7 -1 11 -4 30 -8 44 -8 24 -9 23 -26 -17 -18 -44 -35
-56 -36 -25 0 9 -10 -10 -23 -43 -20 -52 -23 -56 -29 -35 -4 14 -10 55 -13 93
-4 37 -10 67 -14 67 -4 0 -15 -30 -25 -67 -10 -38 -22 -74 -28 -80 -6 -9 -36
-13 -85 -13 -59 0 -78 4 -88 18 -24 31 -22 33 97 46 44 5 47 4 54 -22 4 -15 9
-22 11 -17 2 6 -2 33 -9 60 l-14 50 -17 -32 c-16 -33 -17 -33 -91 -33 l-75 0
26 -52 26 -53 178 0 c204 0 202 -1 256 98 54 99 32 231 -49 291 -38 28 -145
30 -174 4 -28 -26 -40 -22 -17 5 10 12 2 6 -19 -12 -20 -19 -37 -37 -37 -40 0
-2 9 4 20 14 26 23 25 7 -1 -24 l-20 -24 -36 43 c-53 61 -102 79 -165 60z
m280 -362 c-8 -17 -44 -27 -36 -10 2 4 10 25 18 46 l15 39 6 -29 c3 -16 2 -37
-3 -46z"/>
<path d="M1394 1823 c3 -4 17 -8 29 -10 12 -2 28 -5 35 -8 15 -5 16 -55 1 -55
-5 0 -7 -5 -3 -11 9 -15 21 0 28 37 7 29 4 33 -25 43 -35 12 -76 15 -65 4z"/>
<path d="M1727 1816 c-13 -10 -17 -25 -15 -52 l3 -39 17 53 c9 28 15 52 15 52
-1 0 -10 -7 -20 -14z"/>
<path d="M2276 1812 c-3 -9 -5 -37 -5 -62 l1 -46 49 51 c52 54 51 66 -5 71
-26 2 -36 -1 -40 -14z m62 -29 c-41 -44 -66 -50 -28 -6 19 22 39 38 43 35 5
-2 -2 -15 -15 -29z"/>
<path d="M657 1765 c3 -13 0 -38 -5 -55 -10 -26 -8 -31 9 -41 12 -6 23 -8 26
-5 3 3 -4 9 -17 14 -21 8 -21 9 -6 25 13 12 15 26 10 52 -3 19 -10 35 -14 35
-4 0 -5 -11 -3 -25z"/>
<path d="M1506 1774 c-13 -34 -7 -45 22 -38 53 13 58 20 24 38 -38 20 -38 20
-46 0z"/>
<path d="M1646 1773 c-28 -15 -29 -16 -11 -29 20 -15 65 -19 65 -6 0 17 -13
52 -19 52 -3 -1 -19 -8 -35 -17z"/>
<path d="M2697 1715 c-15 -19 -25 -35 -22 -35 13 0 73 54 69 62 -9 14 -18 9
-47 -27z"/>
<path d="M2720 1700 c-29 -24 -42 -28 -75 -25 -35 4 -37 3 -10 -4 l30 -9 -29
-1 c-18 -1 -48 -18 -85 -49 -56 -48 -81 -67 -81 -59 0 2 30 27 66 56 43 35 63
56 56 63 -6 6 -24 -6 -52 -36 -23 -25 -47 -43 -53 -39 -6 3 -7 1 -3 -5 4 -7 3
-12 -3 -12 -6 0 -15 -8 -20 -18 -20 -38 27 -20 93 35 l66 55 19 -24 c18 -21
18 -24 3 -32 -10 -6 -19 -10 -22 -9 -3 0 -11 -8 -18 -19 -7 -10 -18 -15 -24
-12 -6 4 -8 3 -5 -3 6 -9 -44 -63 -60 -63 -4 0 -14 9 -21 20 -12 19 -42 28
-42 13 1 -14 51 -66 57 -59 3 3 12 1 18 -4 8 -7 18 -3 31 13 19 22 19 22 -2 7
-11 -8 -7 -3 10 12 16 15 33 25 37 22 9 -5 69 66 69 82 0 21 27 64 35 56 5 -4
5 -2 2 4 -6 11 52 61 66 56 4 -1 7 3 7 8 0 18 -24 10 -60 -20z"/>
<path d="M1528 1690 c-35 -29 -38 -35 -38 -84 0 -44 4 -56 28 -79 16 -15 44
-29 69 -33 37 -6 46 -3 82 27 38 30 41 36 41 81 0 26 -4 48 -10 48 -5 0 -10
-22 -10 -48 0 -44 -12 -72 -32 -72 -5 0 -1 11 8 25 11 18 15 38 11 65 -3 24
-1 39 5 37 6 -1 13 5 16 13 2 8 1 12 -3 7 -5 -4 -18 1 -29 12 -12 10 -39 22
-61 25 -35 6 -45 3 -77 -24z m125 -4 c26 -20 20 -30 -8 -12 -37 24 -73 20
-106 -13 -36 -37 -37 -70 -2 -111 24 -29 31 -32 70 -27 23 2 40 1 37 -4 -3 -5
-24 -9 -48 -9 -33 0 -48 6 -69 28 -60 62 -18 162 67 162 23 0 49 -7 59 -14z
m10 -65 c16 -65 -50 -112 -102 -73 -30 22 -40 74 -20 99 37 44 107 29 122 -26z"/>
<path d="M1181 1654 c-20 -45 -22 -46 -36 -28 -18 24 -18 13 -2 -51 15 -57 17
-55 46 44 26 85 22 103 -8 35z"/>
<path d="M2072 1690 c-54 -22 -49 -114 7 -126 47 -10 51 -13 51 -39 0 -26 -3
-29 -53 -39 -27 -7 -67 -38 -67 -55 0 -11 42 -6 68 8 11 6 30 11 41 11 36 0
50 37 48 127 -3 86 -11 105 -52 116 -11 3 -30 2 -43 -3z m73 -30 c35 -39 -6
-99 -59 -86 -15 4 -32 17 -38 31 -26 57 55 102 97 55z m15 -136 c0 -29 -32
-64 -59 -64 -11 0 -28 -3 -38 -6 -12 -5 -15 -4 -8 4 6 6 26 14 45 19 31 8 35
13 38 46 3 40 22 41 22 1z"/>
<path d="M1225 1655 c3 -22 9 -67 14 -100 7 -57 8 -59 19 -32 7 15 14 40 18
55 5 25 4 26 -9 9 -13 -16 -15 -13 -19 33 -3 28 -11 57 -17 63 -9 9 -11 3 -6
-28z"/>
<path d="M744 1659 c-10 -17 13 -36 27 -22 12 12 4 33 -11 33 -5 0 -12 -5 -16
-11z"/>
<path d="M1317 1624 c-16 -17 -22 -33 -19 -50 4 -22 7 -20 27 23 l22 48 12
-44 c9 -31 15 -40 21 -31 9 14 -11 63 -29 75 -6 3 -21 -6 -34 -21z"/>
<path d="M1728 1610 c4 -29 22 -33 22 -5 0 7 3 15 8 18 4 2 1 2 -5 1 -7 -2
-13 1 -13 6 0 6 -4 10 -8 10 -5 0 -7 -13 -4 -30z"/>
<path d="M800 1605 c0 -9 10 -15 26 -15 23 0 24 2 10 15 -8 8 -19 15 -25 15
-6 0 -11 -7 -11 -15z"/>
<path d="M1790 1608 c1 -16 28 -53 35 -47 6 7 -18 59 -27 59 -5 0 -8 -6 -8
-12z"/>
<path d="M1741 1554 c-12 -15 -21 -33 -21 -40 0 -17 36 -19 46 -2 5 8 2 9 -9
5 -21 -8 -23 16 -2 33 12 10 16 9 21 -4 3 -9 10 -13 15 -10 9 5 -11 44 -23 44
-3 0 -16 -12 -27 -26z"/>
<path d="M691 1498 c-1 -46 3 -78 9 -78 12 0 12 107 0 135 -6 14 -9 -5 -9 -57z"/>
<path d="M725 1490 c1 -30 6 -57 11 -59 10 -3 7 42 -5 86 -6 21 -8 15 -6 -27z"/>
<path d="M2396 1480 c-20 -22 -36 -44 -36 -48 0 -7 117 -9 130 -2 3 1 9 2 14
1 5 -1 4 5 -3 13 -10 12 -24 14 -52 10 -24 -4 -39 -3 -39 3 0 16 28 36 40 28
15 -9 12 11 -4 24 -11 9 -21 3 -50 -29z"/>
<path d="M605 1462 c-54 -28 -65 -37 -48 -40 12 -2 40 6 62 17 50 26 59 26 36
1 -18 -19 -17 -20 3 -20 19 0 22 6 22 40 0 22 -1 40 -2 40 -2 -1 -34 -17 -73
-38z"/>
<path d="M2179 1488 c-1 -7 -1 -22 0 -33 2 -15 0 -17 -7 -6 -7 9 -12 10 -16 2
-4 -6 -19 -11 -33 -11 -44 0 -15 -14 32 -16 44 -2 44 -1 38 28 -4 20 -1 33 8
39 11 7 11 9 -3 9 -10 0 -19 -6 -19 -12z"/>
<path d="M1438 1480 c12 -5 22 -17 22 -25 0 -15 -1 -15 -16 -1 -8 9 -18 16
-22 16 -14 -1 -54 -41 -48 -48 4 -4 16 4 26 18 10 14 22 21 27 17 4 -5 1 -12
-7 -17 -13 -9 -13 -10 0 -11 8 0 25 -2 38 -3 23 -3 26 4 16 42 -5 16 -14 22
-33 21 -25 0 -25 0 -3 -9z"/>
<path d="M1718 1466 c-13 -30 -28 -34 -28 -7 0 15 -5 17 -32 12 -39 -8 -47
-27 -16 -37 23 -8 138 -12 138 -5 0 2 -11 16 -25 33 l-25 29 -12 -25z"/>
<path d="M2247 1475 c14 -11 15 -16 5 -28 -11 -13 -10 -16 8 -22 26 -8 30 -5
33 30 2 24 -2 27 -31 30 -29 2 -31 1 -15 -10z"/>
<path d="M1496 1453 c4 -16 8 -30 10 -32 5 -6 64 20 64 28 0 16 -26 31 -52 31
-26 0 -28 -2 -22 -27z"/>
<path d="M1747 1213 c-14 -38 -29 -76 -33 -85 -3 -11 -1 -18 5 -18 6 0 16 11
21 25 12 32 65 36 75 5 5 -17 15 -20 71 -20 36 0 64 4 64 10 0 6 -18 10 -40
10 l-40 0 2 65 c4 91 -16 87 -22 -5 l-5 -75 -30 78 c-16 42 -32 77 -36 77 -3
0 -18 -30 -32 -67z m43 8 c0 -5 3 -16 6 -25 4 -12 0 -16 -16 -16 -16 0 -20 4
-16 16 3 9 6 20 6 25 0 5 5 9 10 9 6 0 10 -4 10 -9z"/>
<path d="M1082 1193 c3 -85 23 -102 23 -20 -1 26 2 47 5 47 3 0 13 -15 23 -32
20 -35 19 -35 54 19 10 15 12 9 12 -40 1 -36 5 -56 11 -52 13 8 13 155 1 155
-5 0 -20 -16 -32 -37 l-22 -36 -24 29 c-12 16 -23 32 -23 37 0 4 -7 7 -15 7
-13 0 -15 -13 -13 -77z"/>
<path d="M1240 1195 l0 -75 45 0 c25 0 45 5 45 10 0 6 -16 10 -35 10 -28 0
-35 4 -35 20 0 16 7 20 35 20 26 0 35 4 35 16 0 13 -7 15 -35 11 -32 -5 -35
-4 -35 19 0 21 5 24 35 24 19 0 35 5 35 10 0 6 -20 10 -45 10 l-45 0 0 -75z"/>
<path d="M1344 1195 l-1 -75 47 0 c57 0 84 24 84 75 0 50 -27 75 -83 75 l-46
0 -1 -75z m90 42 c21 -16 24 -60 6 -82 -7 -8 -25 -15 -41 -15 -28 0 -29 1 -29
55 0 51 2 55 23 55 13 0 31 -6 41 -13z"/>
<path d="M1470 1260 c0 -5 7 -10 15 -10 12 0 15 -13 15 -55 0 -42 -3 -55 -15
-55 -8 0 -15 -4 -15 -10 0 -5 20 -10 45 -10 25 0 45 5 45 10 0 6 -6 10 -14 10
-10 0 -15 16 -18 55 -3 47 0 55 15 55 9 0 17 5 17 10 0 6 -20 10 -45 10 -25 0
-45 -4 -45 -10z"/>
<path d="M1581 1244 c-25 -32 -27 -62 -5 -92 24 -35 59 -45 93 -27 28 14 47
42 36 53 -3 3 -15 -5 -26 -17 -28 -29 -69 -25 -88 10 -13 24 -13 29 2 53 21
32 60 34 84 6 19 -22 33 -26 33 -10 0 22 -41 50 -74 50 -25 0 -40 -7 -55 -26z"/>
<path d="M1318 998 l-3 -71 -45 66 c-25 37 -51 67 -57 67 -10 0 -13 -27 -13
-100 0 -82 3 -100 15 -100 12 0 15 15 15 73 l0 72 48 -72 c26 -40 53 -73 60
-73 19 0 17 196 -3 203 -11 5 -15 -8 -17 -65z"/>
<path d="M1563 1063 c-35 -7 -73 -59 -73 -100 0 -44 54 -103 94 -103 91 0 139
103 79 169 -29 31 -61 42 -100 34z m71 -44 c49 -39 22 -129 -40 -129 -37 0
-74 37 -74 75 0 36 36 75 70 75 10 0 29 -9 44 -21z"/>
<path d="M1083 1048 c2 -7 11 -12 21 -10 14 2 16 -8 16 -73 0 -68 -2 -75 -20
-75 -11 0 -20 -7 -20 -15 0 -11 12 -15 50 -15 38 0 50 4 50 15 0 8 -7 15 -15
15 -12 0 -15 15 -15 75 0 60 3 75 15 75 8 0 15 5 15 10 0 6 -23 10 -51 10 -36
0 -49 -4 -46 -12z"/>
<path d="M1370 960 c0 -60 4 -100 10 -100 6 0 10 20 10 45 l0 45 40 0 c29 0
40 4 40 15 0 11 -11 15 -41 15 -38 0 -40 1 -37 28 3 25 6 27 46 24 33 -3 42 0
42 12 0 13 -12 16 -55 16 l-55 0 0 -100z"/>
<path d="M1750 960 l0 -100 100 0 100 0 0 100 0 100 -100 0 -100 0 0 -100z
m130 51 c0 -14 5 -18 20 -14 17 5 20 0 20 -31 0 -29 -4 -36 -20 -36 -13 0 -20
-7 -20 -20 0 -16 -7 -20 -36 -20 -31 0 -36 3 -31 20 4 15 0 20 -14 20 -15 0
-19 7 -19 35 0 29 4 35 18 33 11 -2 16 3 14 15 -2 13 4 17 33 17 28 0 35 -4
35 -19z"/>
<path d="M682 683 c4 -33 52 -54 73 -32 17 19 29 59 17 59 -6 0 -13 -12 -16
-26 -9 -33 -49 -31 -54 4 -5 32 -24 28 -20 -5z"/>
<path d="M825 700 c-22 -6 -10 -8 46 -9 55 -1 80 -5 89 -16 16 -19 44 -19 75
1 26 17 107 11 134 -10 12 -9 13 -8 6 3 -6 10 -4 12 4 7 7 -5 10 -15 7 -23 -3
-8 -2 -12 3 -9 5 3 12 -1 15 -10 5 -12 1 -14 -17 -9 -20 5 -20 5 3 -9 14 -9
30 -15 37 -16 14 0 6 35 -15 68 -14 21 -13 22 22 22 24 0 36 -5 36 -14 0 -23
59 -66 90 -66 29 0 80 33 68 45 -4 4 -21 2 -39 -4 -26 -9 -37 -8 -56 4 -12 9
-23 20 -23 25 0 12 27 13 32 2 2 -5 17 -12 33 -16 l30 -6 -25 15 c-24 14 -22
15 35 12 59 -2 75 -9 75 -35 0 -8 -9 -11 -27 -7 -23 4 -25 4 -8 -4 38 -18 55
-13 55 17 0 25 3 27 42 26 31 -1 44 -6 46 -18 2 -9 8 -14 13 -11 5 4 9 -3 9
-15 0 -12 9 -24 23 -30 12 -5 16 -9 8 -9 -8 -1 -23 7 -34 17 -19 16 -19 16
-16 -3 3 -14 14 -21 34 -23 35 -4 55 18 55 63 0 29 2 30 43 31 30 0 47 -6 59
-21 21 -26 88 -26 138 0 40 21 196 29 219 11 12 -8 13 -8 7 2 -7 11 -4 11 12
1 12 -7 27 -9 38 -4 11 4 25 9 33 11 7 1 18 7 24 13 6 6 -197 9 -611 9 -508
-1 -622 -4 -626 -15 -7 -17 -31 -17 -46 2 -13 16 -100 19 -155 5z m836 -50
l-7 -35 -11 32 c-10 27 -9 32 5 36 9 2 18 3 19 3 1 -1 -2 -17 -6 -36z"/>
</g>
</svg>
